<svg width="12" height="18" viewBox="0 0 12 18" fill="none" xmlns="http://www.w3.org/2000/svg">
<path d="M8.78515 11.1564C8.6131 11.1564 8.47346 11.0168 8.47346 10.8447C8.47346 9.88554 7.90411 9.00201 7.02307 8.59307C6.76125 8.47172 6.57674 8.17167 6.55512 7.8284C6.53518 7.51006 6.65902 7.23577 6.88593 7.09364C7.40458 6.77364 7.71377 6.22673 7.71377 5.62912C7.71377 4.67577 6.93746 3.90029 5.98411 3.90029C5.03159 3.90029 4.25611 4.67577 4.25611 5.62912C4.25611 6.22341 4.56531 6.77115 5.08229 7.09281C5.31003 7.23494 5.43388 7.50923 5.41393 7.82757C5.39315 8.17084 5.20946 8.47089 4.94764 8.59141C4.06577 8.99868 3.49642 9.88388 3.49642 10.8447C3.49642 11.0168 3.35679 11.1564 3.18474 11.1564C3.01268 11.1564 2.87305 11.0168 2.87305 10.8447C2.87305 9.64118 3.58453 8.53489 4.68666 8.02538C4.72572 8.00793 4.78473 7.91484 4.79222 7.7885C4.79886 7.69209 4.77061 7.63224 4.75398 7.62227C4.05248 7.1859 3.63357 6.44035 3.63357 5.62912C3.63357 4.3325 4.68832 3.27692 5.98494 3.27692C7.28323 3.27692 8.33798 4.3325 8.33798 5.62912C8.33798 6.44367 7.91824 7.18923 7.21507 7.6231C7.19928 7.63224 7.17102 7.69209 7.17684 7.7885C7.18515 7.91484 7.24416 8.00793 7.28489 8.02705C8.38536 8.53738 9.09684 9.64284 9.09684 10.8447C9.09684 11.0168 8.9572 11.1564 8.78515 11.1564Z" fill="#3E4963"/>
<path d="M1.19531 15.1403C1.19531 16.0587 1.94004 16.8043 2.85848 16.8043H9.11053C10.0281 16.8043 10.7737 16.0595 10.7737 15.1403V13.6309H1.19531V15.1403Z" stroke="#3E4963" stroke-width="0.75" stroke-miterlimit="10" stroke-linecap="round" stroke-linejoin="round"/>
<path d="M9.1122 0.804138H2.85848C1.94087 0.804138 1.19531 1.54803 1.19531 2.46481V2.67926V13.6307H10.7737V2.67926V2.46481C10.7754 1.54803 10.0298 0.804138 9.1122 0.804138Z" stroke="#3E4963" stroke-width="0.75" stroke-miterlimit="10" stroke-linecap="round" stroke-linejoin="round"/>
</svg>
