<svg width="18" height="18" viewBox="0 0 18 18" fill="none" xmlns="http://www.w3.org/2000/svg">
<path d="M11.194 12.2682C11.0219 12.2682 10.8823 12.1286 10.8823 11.9566C10.8823 11.1977 10.4318 10.4979 9.73446 10.1737C9.50257 10.0681 9.33883 9.80466 9.31888 9.50294C9.30142 9.22117 9.41197 8.97681 9.61561 8.84964C10.0212 8.59946 10.2623 8.17224 10.2623 7.70512C10.2623 6.96788 9.66797 6.36694 8.93238 6.35531C8.92574 6.35531 8.91909 6.35614 8.91244 6.35614C8.16771 6.35614 7.56179 6.96206 7.56179 7.70595C7.56179 8.17224 7.80283 8.59946 8.20678 8.84881C8.41124 8.97598 8.52179 9.21868 8.50433 9.50045C8.48605 9.80133 8.32314 10.0665 8.08958 10.1737C7.39306 10.4962 6.94174 11.196 6.94174 11.9566C6.94174 12.1286 6.8021 12.2682 6.63005 12.2682C6.458 12.2682 6.31836 12.1286 6.31836 11.9566C6.31836 10.9542 6.91181 10.0324 7.83026 9.6085C7.83774 9.60351 7.86683 9.56611 7.87929 9.49962C7.89259 9.43063 7.87763 9.38159 7.87015 9.37245C7.29083 9.01588 6.93924 8.39084 6.93924 7.70762C6.93924 6.62793 7.81114 5.74855 8.8875 5.73442C9.97301 5.72694 10.8865 6.61047 10.8865 7.70679C10.8865 8.39167 10.534 9.01754 9.94475 9.38159C9.94807 9.38242 9.93228 9.43146 9.94641 9.50211C9.95971 9.56777 9.98797 9.60434 9.99711 9.61016C10.9147 10.0357 11.5057 10.9567 11.5057 11.9574C11.5057 12.1286 11.366 12.2682 11.194 12.2682Z" fill="#071F27"/>
<path d="M8.91002 15.404C12.4469 15.404 15.3142 12.5368 15.3142 8.99986C15.3142 5.46294 12.4469 2.5957 8.91002 2.5957C5.3731 2.5957 2.50586 5.46294 2.50586 8.99986C2.50586 12.5368 5.3731 15.404 8.91002 15.404Z" stroke="#071F27" stroke-width="0.75" stroke-miterlimit="10" stroke-linecap="round" stroke-linejoin="round"/>
<path d="M8.91016 4.19169V1" stroke="#071F27" stroke-width="0.75" stroke-miterlimit="10" stroke-linecap="round" stroke-linejoin="round"/>
<path d="M8.91016 17.0003V13.8086" stroke="#071F27" stroke-width="0.75" stroke-miterlimit="10" stroke-linecap="round" stroke-linejoin="round"/>
<path d="M4.10184 9H0.910156" stroke="#071F27" stroke-width="0.75" stroke-miterlimit="10" stroke-linecap="round" stroke-linejoin="round"/>
<path d="M16.9104 9H13.7188" stroke="#071F27" stroke-width="0.75" stroke-miterlimit="10" stroke-linecap="round" stroke-linejoin="round"/>
</svg>
