<svg width="18" height="18" viewBox="0 0 18 18" fill="none" xmlns="http://www.w3.org/2000/svg">
<path d="M5.56586 6.4375C5.54093 6.4375 5.51351 6.44082 5.48775 6.44664C4.41992 6.69095 3.45929 7.24606 2.7089 8.05213C2.63743 8.13024 2.60253 8.23661 2.61749 8.34214C2.63328 8.44685 2.69477 8.54075 2.78618 8.59477C3.15597 8.81747 3.28228 9.30111 3.06706 9.6734C2.92579 9.91937 2.66236 10.0714 2.37899 10.0714C2.24437 10.0714 2.11058 10.0365 1.99175 9.96923C1.93856 9.93932 1.8779 9.92436 1.81807 9.92436C1.77403 9.92436 1.72998 9.93267 1.6876 9.95012C1.58871 9.98918 1.51392 10.0714 1.48235 10.1745C1.32363 10.693 1.24219 11.2323 1.24219 11.7791C1.24219 12.3259 1.32363 12.8653 1.48235 13.3846C1.51392 13.486 1.58871 13.5691 1.6876 13.609C1.72998 13.6264 1.77403 13.6339 1.81807 13.6339C1.8779 13.6339 1.93856 13.619 1.99175 13.5882C2.11058 13.5234 2.24437 13.4877 2.37899 13.4877C2.66236 13.4877 2.92579 13.6389 3.06706 13.8849C3.28311 14.2572 3.15597 14.7425 2.78618 14.9635C2.69477 15.0175 2.63244 15.1106 2.61749 15.217C2.6017 15.3225 2.6366 15.4289 2.70806 15.5078C3.45845 16.3131 4.41992 16.8682 5.48775 17.1125C5.51351 17.1183 5.5401 17.1216 5.56586 17.1216C5.64481 17.1216 5.72126 17.0959 5.78441 17.046C5.86917 16.9803 5.9182 16.8806 5.91987 16.7743C5.92485 16.3413 6.28135 15.9906 6.71264 15.9906C7.14392 15.9906 7.49959 16.3413 7.50707 16.7743C7.50873 16.8806 7.55693 16.9803 7.64086 17.046C7.70401 17.0959 7.78047 17.1216 7.85941 17.1216C7.886 17.1216 7.91176 17.1183 7.93835 17.1125C9.00535 16.8682 9.96599 16.3131 10.7172 15.5078C10.7912 15.4297 10.8244 15.3225 10.8078 15.217C10.7928 15.1106 10.7305 15.0184 10.6399 14.9635C10.2693 14.7425 10.1422 14.2572 10.359 13.8849C10.4995 13.6389 10.7629 13.4877 11.0463 13.4877C11.1809 13.4877 11.3147 13.5234 11.4335 13.5882C11.4867 13.619 11.5474 13.6339 11.6072 13.6339C11.6521 13.6339 11.6961 13.6256 11.7385 13.609C11.8374 13.5691 11.9138 13.4868 11.9446 13.3846C12.1033 12.8653 12.1839 12.3259 12.1839 11.7791C12.1839 11.2323 12.1033 10.6939 11.9446 10.1745C11.9138 10.0723 11.8374 9.98918 11.7385 9.95012C11.6961 9.93267 11.6521 9.92436 11.6072 9.92436C11.5474 9.92436 11.4867 9.93932 11.4335 9.97007C11.3147 10.0365 11.1817 10.0714 11.0463 10.0714C10.7629 10.0714 10.4995 9.91937 10.359 9.6734C10.143 9.30111 10.2693 8.81747 10.6399 8.59477C10.7313 8.54075 10.7937 8.44685 10.8078 8.34214C10.8244 8.23661 10.7903 8.13024 10.7172 8.05213C9.96682 7.24606 9.00535 6.69178 7.93835 6.44664C7.91093 6.44082 7.886 6.43833 7.85941 6.43833C7.78047 6.43833 7.70401 6.46409 7.64086 6.51395C7.5561 6.5796 7.50873 6.68015 7.50707 6.78652C7.49959 7.21781 7.14475 7.56932 6.71264 7.56932C6.28052 7.56932 5.92485 7.21781 5.91987 6.78652C5.9182 6.68015 5.86834 6.57877 5.78441 6.51395C5.72126 6.46409 5.64481 6.4375 5.56586 6.4375Z" stroke="#071F27" stroke-width="0.75" stroke-miterlimit="10" stroke-linecap="round" stroke-linejoin="round"/>
<path d="M6.71225 14.4689C8.19832 14.4689 9.40302 13.2642 9.40302 11.7782C9.40302 10.2921 8.19832 9.0874 6.71225 9.0874C5.22618 9.0874 4.02148 10.2921 4.02148 11.7782C4.02148 13.2642 5.22618 14.4689 6.71225 14.4689Z" stroke="#071F27" stroke-width="0.75" stroke-miterlimit="10" stroke-linecap="round" stroke-linejoin="round"/>
<path d="M13.1874 1.12241C13.1717 1.12241 13.155 1.12408 13.1392 1.1274C12.4853 1.27864 11.8969 1.61769 11.4374 2.1113C11.3925 2.15867 11.3726 2.22431 11.3825 2.2883C11.3917 2.35312 11.4299 2.40963 11.4856 2.4437C11.7116 2.57915 11.7889 2.87581 11.6568 3.10434C11.5703 3.25558 11.4091 3.34699 11.2354 3.34699C11.1523 3.34699 11.0709 3.32621 10.9986 3.28467C10.9662 3.26638 10.9296 3.25724 10.8922 3.25724C10.8648 3.25724 10.8382 3.26223 10.8116 3.27303C10.7518 3.29713 10.7053 3.34782 10.6861 3.41015C10.5889 3.72759 10.5391 4.05832 10.5391 4.39321C10.5391 4.72644 10.5889 5.05718 10.6861 5.37545C10.7053 5.43778 10.7518 5.4893 10.8116 5.5134C10.8374 5.52337 10.864 5.52835 10.8922 5.52835C10.9296 5.52835 10.9662 5.51921 10.9986 5.50176C11.0709 5.46104 11.1532 5.43944 11.2354 5.43944C11.4091 5.43944 11.5703 5.53168 11.6568 5.68292C11.7897 5.90978 11.7116 6.20645 11.4856 6.34273C11.4299 6.37597 11.3917 6.43331 11.3825 6.49813C11.3726 6.56211 11.3933 6.62776 11.4382 6.67596C11.8977 7.16957 12.4861 7.50862 13.1401 7.6582C13.1559 7.66235 13.1725 7.66401 13.1883 7.66401C13.2373 7.66401 13.283 7.64823 13.3221 7.61748C13.3744 7.57759 13.4035 7.5161 13.4043 7.45045C13.4085 7.18619 13.6262 6.97096 13.8905 6.97096C14.1547 6.97096 14.3724 7.18619 14.3766 7.45045C14.3774 7.5161 14.4082 7.57676 14.4597 7.61748C14.4979 7.64823 14.5453 7.66401 14.5927 7.66401C14.6101 7.66401 14.6251 7.66235 14.6425 7.6582C15.2957 7.50862 15.884 7.16957 16.3444 6.67596C16.3868 6.62776 16.4067 6.56211 16.3968 6.4973C16.3876 6.43331 16.3486 6.37597 16.2945 6.3419C16.0668 6.20562 15.9896 5.90895 16.1225 5.68209C16.2089 5.53085 16.3702 5.43861 16.543 5.43861C16.6261 5.43861 16.7084 5.46021 16.7798 5.50093C16.8123 5.51838 16.8505 5.52752 16.8862 5.52752C16.9145 5.52752 16.9411 5.52254 16.9668 5.51257C17.0275 5.48847 17.0748 5.43778 17.0931 5.37462C17.1895 5.05635 17.2402 4.72561 17.2402 4.39238C17.2402 4.05749 17.1895 3.72759 17.0931 3.40931C17.0748 3.34699 17.0275 3.2963 16.9668 3.2722C16.9419 3.2614 16.9145 3.25724 16.8862 3.25724C16.8505 3.25724 16.8123 3.26638 16.7798 3.28467C16.7084 3.32538 16.6261 3.34616 16.543 3.34616C16.3702 3.34616 16.2089 3.25392 16.1225 3.10351C15.9896 2.87498 16.0668 2.57832 16.2945 2.44287C16.351 2.4088 16.3876 2.35312 16.3968 2.28747C16.4067 2.22348 16.386 2.15783 16.3427 2.11047C15.8824 1.61686 15.294 1.27781 14.6409 1.12657C14.6234 1.12408 14.6085 1.12158 14.591 1.12158C14.5428 1.12158 14.4963 1.13737 14.458 1.16729C14.4065 1.20801 14.3758 1.27033 14.3749 1.33515C14.3708 1.60024 14.1531 1.81463 13.8888 1.81463C13.6246 1.81463 13.4068 1.60024 13.4027 1.33515C13.4018 1.27033 13.3728 1.20884 13.3204 1.16729C13.2822 1.13903 13.2365 1.12241 13.1874 1.12241Z" stroke="#071F27" stroke-width="0.75" stroke-miterlimit="10" stroke-linecap="round" stroke-linejoin="round"/>
<path d="M13.8873 5.4609C14.4766 5.4609 14.9543 4.98319 14.9543 4.3939C14.9543 3.80462 14.4766 3.3269 13.8873 3.3269C13.298 3.3269 12.8203 3.80462 12.8203 4.3939C12.8203 4.98319 13.298 5.4609 13.8873 5.4609Z" stroke="#071F27" stroke-width="0.75" stroke-miterlimit="10" stroke-linecap="round" stroke-linejoin="round"/>
</svg>
