<svg width="18" height="17" viewBox="0 0 18 17" fill="none" xmlns="http://www.w3.org/2000/svg">
<path d="M14.4732 0.404297L6.05469 3.66398L12.7278 7.73817L14.4732 0.404297Z" stroke="#071F27" stroke-width="0.75" stroke-miterlimit="10" stroke-linecap="round" stroke-linejoin="round"/>
<path d="M8.55273 5.17484L12.3194 2.54016" stroke="#071F27" stroke-width="0.75" stroke-miterlimit="10" stroke-linecap="round" stroke-linejoin="round"/>
<path d="M8.55273 5.37201V8.26434L10.7087 6.68935" stroke="#071F27" stroke-width="0.75" stroke-miterlimit="10" stroke-linecap="round" stroke-linejoin="round"/>
<path d="M1.33789 13.5418L5.10456 10.9063" stroke="#071F27" stroke-width="0.75" stroke-miterlimit="10" stroke-linecap="round" stroke-linejoin="round"/>
<path d="M1.97461 11.4871L5.74045 8.85242" stroke="#071F27" stroke-width="0.75" stroke-miterlimit="10" stroke-linecap="round" stroke-linejoin="round"/>
<path d="M2.61133 9.43446L6.378 6.79895" stroke="#071F27" stroke-width="0.75" stroke-miterlimit="10" stroke-linecap="round" stroke-linejoin="round"/>
<path d="M12.809 9.09869C12.7924 9.09869 12.7741 9.10036 12.7566 9.10451C12.0253 9.2724 11.3687 9.65139 10.8559 10.2024C10.8052 10.2556 10.7819 10.3288 10.7935 10.4011C10.8043 10.4725 10.8459 10.5365 10.9099 10.5739C11.1625 10.7252 11.2481 11.056 11.101 11.312C11.0038 11.4799 10.8243 11.5838 10.6315 11.5838C10.5392 11.5838 10.4469 11.5597 10.3663 11.514C10.3298 11.494 10.289 11.4832 10.2466 11.4832C10.2175 11.4832 10.186 11.489 10.1585 11.5007C10.0904 11.5281 10.038 11.5846 10.0172 11.6544C9.90837 12.0101 9.85352 12.3783 9.85352 12.7515C9.85352 13.1247 9.90837 13.4945 10.0172 13.8503C10.038 13.9192 10.0904 13.9749 10.1585 14.0032C10.186 14.0148 10.2175 14.0206 10.2466 14.0206C10.289 14.0206 10.3298 14.0098 10.3663 13.9899C10.4478 13.9442 10.5392 13.9209 10.6315 13.9209C10.8243 13.9209 11.0038 14.024 11.101 14.1927C11.2481 14.447 11.1617 14.7778 10.9099 14.9299C10.8467 14.9665 10.8043 15.0296 10.7935 15.1028C10.7819 15.1742 10.806 15.2474 10.8559 15.3014C11.3687 15.8524 12.0253 16.2314 12.7566 16.3985C12.7741 16.4026 12.7924 16.4043 12.809 16.4043C12.8639 16.4043 12.9162 16.3869 12.9603 16.3528C13.016 16.3071 13.0509 16.2381 13.0509 16.1658C13.055 15.8699 13.2994 15.6289 13.5936 15.6289C13.8878 15.6289 14.1313 15.8691 14.1355 16.1658C14.1363 16.2381 14.1704 16.3071 14.2277 16.3528C14.2701 16.386 14.3217 16.4043 14.3782 16.4043C14.3956 16.4043 14.4131 16.4026 14.4297 16.3985C15.1628 16.2314 15.8185 15.8524 16.3305 15.3014C16.3812 15.2474 16.4045 15.1742 16.3937 15.1028C16.3829 15.0296 16.3413 14.9665 16.2781 14.9299C16.0246 14.7778 15.9382 14.447 16.0878 14.1927C16.1826 14.024 16.3629 13.9209 16.5566 13.9209C16.648 13.9209 16.7402 13.9442 16.8209 13.9899C16.8574 14.0098 16.899 14.0206 16.9397 14.0206C16.9696 14.0206 17.0004 14.0148 17.0295 14.0032C17.0968 13.9758 17.15 13.9192 17.1691 13.8503C17.2788 13.4937 17.3345 13.1247 17.3345 12.7515C17.3345 12.3783 17.2788 12.0101 17.1691 11.6544C17.15 11.5854 17.0968 11.5289 17.0295 11.5007C17.0004 11.489 16.9696 11.484 16.9397 11.484C16.899 11.484 16.8574 11.494 16.8209 11.514C16.7394 11.5597 16.6488 11.5838 16.5566 11.5838C16.3629 11.5838 16.1826 11.4799 16.0878 11.312C15.939 11.056 16.0255 10.7252 16.2781 10.5739C16.3413 10.5365 16.3829 10.4725 16.3937 10.4011C16.4045 10.3288 16.3804 10.2556 16.3305 10.2024C15.8185 9.65139 15.1628 9.2724 14.4297 9.10451C14.4131 9.10036 14.3956 9.09869 14.3782 9.09869C14.3225 9.09869 14.2701 9.11698 14.2277 9.15105C14.1704 9.1951 14.1363 9.26492 14.1355 9.33723C14.1313 9.63228 13.8878 9.8733 13.5936 9.8733C13.2994 9.8733 13.055 9.63311 13.0509 9.33723C13.0509 9.26492 13.016 9.1951 12.9603 9.15105C12.9162 9.11698 12.8639 9.09869 12.809 9.09869Z" stroke="#071F27" stroke-width="0.75" stroke-miterlimit="10" stroke-linecap="round" stroke-linejoin="round"/>
<path d="M13.5929 14.2401C14.4155 14.2401 15.0823 13.5733 15.0823 12.7507C15.0823 11.9282 14.4155 11.2614 13.5929 11.2614C12.7703 11.2614 12.1035 11.9282 12.1035 12.7507C12.1035 13.5733 12.7703 14.2401 13.5929 14.2401Z" stroke="#071F27" stroke-width="0.75" stroke-miterlimit="10" stroke-linecap="round" stroke-linejoin="round"/>
</svg>
