<svg width="18" height="18" viewBox="0 0 18 18" fill="none" xmlns="http://www.w3.org/2000/svg">
<path d="M10.5086 12.6455H7.30859" stroke="#071F27" stroke-width="0.75" stroke-miterlimit="10" stroke-linecap="round" stroke-linejoin="round"/>
<path d="M12.6967 7.94796V4.14952C12.6967 3.22193 11.9328 2.46973 10.9903 2.46973H6.82944C5.88689 2.46973 5.12305 3.2211 5.12305 4.14952V7.94796" stroke="#071F27" stroke-width="0.75" stroke-miterlimit="10" stroke-linecap="round" stroke-linejoin="round"/>
<path d="M7.36794 6.24737C7.78797 6.24737 8.12846 5.91283 8.12846 5.50015C8.12846 5.08747 7.78797 4.75293 7.36794 4.75293C6.94792 4.75293 6.60742 5.08747 6.60742 5.50015C6.60742 5.91283 6.94792 6.24737 7.36794 6.24737Z" stroke="#071F27" stroke-width="0.75" stroke-miterlimit="10" stroke-linecap="round" stroke-linejoin="round"/>
<path d="M10.4519 6.15606C10.8719 6.15606 11.2124 5.82152 11.2124 5.40884C11.2124 4.99616 10.8719 4.66162 10.4519 4.66162C10.0319 4.66162 9.69141 4.99616 9.69141 5.40884C9.69141 5.82152 10.0319 6.15606 10.4519 6.15606Z" stroke="#071F27" stroke-width="0.75" stroke-miterlimit="10" stroke-linecap="round" stroke-linejoin="round"/>
<path d="M8.9082 1V2.47034" stroke="#071F27" stroke-width="0.75" stroke-miterlimit="10" stroke-linecap="round" stroke-linejoin="round"/>
<path d="M16.9102 15.3201C16.9102 16.2476 16.1463 16.9999 15.2029 16.9999H2.61738C1.674 16.9999 0.910156 16.2485 0.910156 15.3201V9.96983C0.910156 9.04225 1.674 8.29004 2.61738 8.29004H15.2038C16.1471 8.29004 16.911 9.04142 16.911 9.96983V15.3201H16.9102Z" stroke="#071F27" stroke-width="0.75" stroke-miterlimit="10" stroke-linecap="round" stroke-linejoin="round"/>
</svg>
