<svg width="18" height="18" viewBox="0 0 18 18" fill="none" xmlns="http://www.w3.org/2000/svg">
<path d="M15.8647 13.2374C16.9277 11.3383 16.749 8.90476 15.2172 7.19099C14.2988 6.16372 13.0646 5.58942 11.7922 5.47223C12.0132 6.95994 11.596 8.52992 10.5147 9.73754C9.3628 11.0249 7.723 11.5951 6.12891 11.4422C6.27186 12.4279 6.68991 13.3845 7.40385 14.1824C8.55661 15.4706 10.1981 16.0408 11.7938 15.887C12.3216 15.8346 12.8427 15.705 13.3405 15.4956L16.9592 16.9999L15.8647 13.2374Z" stroke="#071F27" stroke-width="0.75" stroke-miterlimit="10" stroke-linecap="round" stroke-linejoin="round"/>
<path d="M11.7929 5.47155C11.6192 4.30216 11.0524 3.18431 10.1033 2.3349C7.94734 0.405036 4.632 0.589544 2.70214 2.74714C1.16872 4.46008 0.991689 6.8936 2.05469 8.79437L0.960938 12.5552L4.57964 11.0509C5.07748 11.2611 5.59943 11.3908 6.12553 11.4415C6.12719 11.4415 6.12885 11.4415 6.13051 11.4415C7.7246 11.5953 9.3644 11.0243 10.5163 9.73686C11.5968 8.53008 12.014 6.95926 11.7929 5.47155Z" stroke="#071F27" stroke-width="0.75" stroke-miterlimit="10" stroke-linecap="round" stroke-linejoin="round"/>
<path d="M3.4909 6.906C3.93569 6.906 4.29626 6.54543 4.29626 6.10064C4.29626 5.65586 3.93569 5.29529 3.4909 5.29529C3.04612 5.29529 2.68555 5.65586 2.68555 6.10064C2.68555 6.54543 3.04612 6.906 3.4909 6.906Z" stroke="#071F27" stroke-width="0.75" stroke-miterlimit="10" stroke-linecap="round" stroke-linejoin="round"/>
<path d="M6.59051 6.906C7.0353 6.906 7.39587 6.54543 7.39587 6.10064C7.39587 5.65586 7.0353 5.29529 6.59051 5.29529C6.14573 5.29529 5.78516 5.65586 5.78516 6.10064C5.78516 6.54543 6.14573 6.906 6.59051 6.906Z" stroke="#071F27" stroke-width="0.75" stroke-miterlimit="10" stroke-linecap="round" stroke-linejoin="round"/>
<path d="M9.69124 6.90513C10.1356 6.90513 10.4958 6.54493 10.4958 6.10061C10.4958 5.65628 10.1356 5.29608 9.69124 5.29608C9.24692 5.29608 8.88672 5.65628 8.88672 6.10061C8.88672 6.54493 9.24692 6.90513 9.69124 6.90513Z" stroke="#071F27" stroke-width="0.75" stroke-miterlimit="10" stroke-linecap="round" stroke-linejoin="round"/>
</svg>
