<svg width="22" height="22" viewBox="0 0 22 22" fill="none" xmlns="http://www.w3.org/2000/svg">
<g clip-path="url(#clip0)">
<path d="M20.3316 1.15368C20.097 0.919123 19.8756 0.697556 19.5824 0.646339C19.5397 0.638545 19.4956 0.634277 19.4501 0.634277C19.1606 0.634277 18.8608 0.799246 18.5061 1.15386L17.8682 1.79407C17.868 1.79426 17.8678 1.79426 17.8676 1.79444L4.0898 15.5724C4.08962 15.5726 4.08962 15.5728 4.08943 15.573C4.07496 15.5876 4.06326 15.6051 4.05529 15.6244L4.0551 15.6248C4.0551 15.6249 4.0551 15.6251 4.05491 15.6253L3.28147 17.4845C3.28129 17.4847 3.28129 17.4849 3.2811 17.4852L2.90978 18.4079C2.90978 18.4081 2.90978 18.4081 2.90978 18.4083C2.90217 18.4276 2.89809 18.4482 2.89846 18.4693C2.89865 18.4903 2.9031 18.5109 2.91126 18.5298C2.91126 18.53 2.91126 18.5302 2.91126 18.5304C2.91887 18.5478 2.92982 18.5625 2.94207 18.5755C2.94541 18.5792 2.94931 18.5818 2.95302 18.5851C2.96434 18.5951 2.9764 18.6031 2.98995 18.6094C2.99273 18.6107 2.99458 18.6133 2.99774 18.6144C2.99941 18.6152 3.00164 18.615 3.00349 18.6155C3.02038 18.6217 3.03801 18.6259 3.05638 18.6259C3.05656 18.6259 3.05675 18.6261 3.05693 18.6261C3.05712 18.6261 3.05712 18.6259 3.05731 18.6259C3.07679 18.6259 3.09553 18.6213 3.11335 18.6142C3.11539 18.6133 3.11762 18.6137 3.11984 18.6128L5.86308 17.4288C5.86809 17.4266 5.87143 17.4225 5.87607 17.4197C5.88702 17.4138 5.89759 17.4075 5.90669 17.3991C5.90854 17.3975 5.91077 17.3969 5.91244 17.3952L17.6919 5.61805L19.6897 3.61838L20.3316 2.97873C21.2406 2.06723 20.7793 1.60368 20.3316 1.15368ZM3.99832 17.8879L3.61586 17.507L4.30821 15.8426L4.90258 15.8383V16.4114C4.90258 16.4991 4.97366 16.57 5.06143 16.57H5.64151V17.1785L3.99832 17.8879ZM5.95772 16.4195C5.9579 16.4166 5.95939 16.4143 5.95939 16.4114C5.95939 16.3236 5.88832 16.2527 5.80054 16.2527H5.22046V15.6786C5.22046 15.6784 5.22046 15.6782 5.22046 15.678C5.22046 15.6778 5.22046 15.6776 5.22046 15.6775C5.22046 15.6658 5.21619 15.6557 5.21359 15.645C5.21155 15.6353 5.21137 15.6251 5.20766 15.6164C5.20357 15.6068 5.19615 15.5993 5.1904 15.5908C5.18465 15.5824 5.18056 15.573 5.17351 15.5659C5.16553 15.5581 5.15496 15.5533 5.14549 15.547C5.13788 15.5422 5.13157 15.5355 5.12304 15.5322C5.10411 15.524 5.08333 15.5197 5.06143 15.5197C5.06106 15.5197 5.06069 15.5197 5.06032 15.5197L4.58823 15.5232L15.9793 4.13017L17.3541 5.50485L5.95939 16.8996V16.4277C5.95939 16.4247 5.9579 16.4225 5.95772 16.4195ZM16.2038 3.90582L16.6686 3.44153L18.0424 4.81659L17.5776 5.28162L16.2038 3.90582ZM16.8113 3.29883L17.0674 3.04312L18.4427 4.4165L18.1864 4.67277L16.8113 3.29883ZM17.2114 2.89931L17.4677 2.64323L18.8424 4.01679L18.5867 4.2725L17.2114 2.89931ZM17.6115 2.49941L17.9797 2.13162L19.3534 3.50556L18.9856 3.87353L17.6115 2.49941Z" fill="#929292"/>
<path d="M16.5712 4.9294C16.5037 4.86259 16.4081 4.82715 16.2951 4.82715C16.06 4.82715 15.7612 4.97987 15.5155 5.22556C15.134 5.60467 15.0017 6.07045 15.2151 6.28626C15.2836 6.35492 15.3805 6.39111 15.495 6.39111C15.7304 6.39111 16.0311 6.23764 16.2801 5.9901C16.6577 5.60968 16.7858 5.14391 16.5712 4.9294ZM16.1387 5.66628C16.0442 5.76074 15.8993 5.76871 15.6874 5.76482L15.6087 5.76166L15.607 5.76315L15.837 5.99307L15.7794 6.05059L15.4526 5.72399L15.4951 5.6815L15.6022 5.68317C15.8575 5.68948 15.9828 5.68243 16.0607 5.60597C16.1127 5.55401 16.1357 5.48071 16.0593 5.40426C16.0129 5.35787 15.9505 5.34284 15.9073 5.33894L15.9342 5.26806C15.9995 5.27344 16.0719 5.30183 16.1311 5.36084C16.2409 5.47107 16.2118 5.59298 16.1387 5.66628Z" fill="#929292"/>
</g>
<line x1="0.339844" y1="20.6216" x2="21.5702" y2="20.6216" stroke="#929292" stroke-dasharray="4 3"/>
<defs>
<clipPath id="clip0">
<rect width="18" height="18" fill="white" transform="translate(2.89844 0.634277)"/>
</clipPath>
</defs>
</svg>
