<svg width="18" height="14" viewBox="0 0 18 14" fill="none" xmlns="http://www.w3.org/2000/svg">
<path d="M15.8642 2.70248H7.11103C6.49435 1.84894 5.47708 1.28711 4.32268 1.28711C2.43773 1.28711 0.910156 2.77562 0.910156 4.61153C0.910156 6.44744 2.43856 7.93595 4.32268 7.93595C5.47708 7.93595 6.49352 7.37413 7.1102 6.51892H14.2959C14.5129 6.51892 14.724 6.45409 14.901 6.33192L16.4684 5.25065C16.7452 5.06033 16.9089 4.75033 16.9089 4.41955V3.72059C16.9089 3.15876 16.441 2.70248 15.8642 2.70248ZM3.7675 5.52076C3.25221 5.52076 2.835 5.11352 2.835 4.61153C2.835 4.10871 3.25221 3.7023 3.7675 3.7023C4.28361 3.7023 4.70083 4.10788 4.70083 4.61153C4.70083 5.11269 4.28361 5.52076 3.7675 5.52076Z" stroke="#071F27" stroke-width="0.75" stroke-miterlimit="10" stroke-linecap="round" stroke-linejoin="round"/>
<path d="M3.76844 5.52061C4.28344 5.52061 4.70094 5.11353 4.70094 4.61138C4.70094 4.10922 4.28344 3.70215 3.76844 3.70215C3.25343 3.70215 2.83594 4.10922 2.83594 4.61138C2.83594 5.11353 3.25343 5.52061 3.76844 5.52061Z" stroke="#071F27" stroke-width="0.75" stroke-miterlimit="10" stroke-linecap="round" stroke-linejoin="round"/>
<path d="M9.72461 4.61133H16.9103" stroke="#071F27" stroke-width="0.75" stroke-miterlimit="10" stroke-linecap="round" stroke-linejoin="round"/>
<path d="M0.910156 12.7129H4.94933" stroke="#071F27" stroke-width="0.75" stroke-miterlimit="10" stroke-linecap="round" stroke-linejoin="round"/>
<path d="M12.8672 12.7129H16.908" stroke="#071F27" stroke-width="0.75" stroke-miterlimit="10" stroke-linecap="round" stroke-linejoin="round"/>
<path d="M6.88672 12.7129H10.9284" stroke="#071F27" stroke-width="0.75" stroke-miterlimit="10" stroke-linecap="round" stroke-linejoin="round"/>
</svg>
