<svg width="21" height="20" viewBox="0 0 21 20" fill="none" xmlns="http://www.w3.org/2000/svg">
<path d="M8.93359 14.4738L14.3288 19.2173C14.6875 18.994 14.9398 18.6128 14.9398 18.1597V9.63685C14.9398 9.4597 14.9 9.28791 14.8292 9.12793C14.7551 9.29542 14.6488 9.44896 14.5071 9.57351L8.93359 14.4738Z" stroke="#929292" stroke-width="0.75" stroke-miterlimit="10" stroke-linecap="round" stroke-linejoin="round"/>
<path d="M1.5907 9.57253C1.45005 9.44798 1.34376 9.29445 1.26967 9.12695C1.20096 9.28586 1.16016 9.45872 1.16016 9.63588V18.1588C1.16016 18.6129 1.4114 18.9919 1.77001 19.2153L7.16526 14.4728L1.5907 9.57253Z" stroke="#929292" stroke-width="0.75" stroke-miterlimit="10" stroke-linecap="round" stroke-linejoin="round"/>
<path d="M8.93167 14.474L8.88658 14.4343C8.64715 14.2239 8.34866 14.1187 8.05018 14.1187C7.75062 14.1187 7.45321 14.2239 7.21378 14.4343L7.16869 14.474L1.77344 19.2165C1.96885 19.3378 2.18466 19.4269 2.43053 19.4269H8.05018H13.6709C13.9168 19.4269 14.1337 19.3378 14.3269 19.2176L8.93167 14.474Z" stroke="#929292" stroke-width="0.75" stroke-miterlimit="10" stroke-linecap="round" stroke-linejoin="round"/>
<path d="M14.828 9.12693C14.7539 8.96051 14.6476 8.80698 14.5059 8.68243L8.88515 3.74242C8.6468 3.53198 8.34724 3.42676 8.04876 3.42676C7.7492 3.42676 7.45179 3.53198 7.21236 3.74242L1.59056 8.68243C1.44991 8.80698 1.34362 8.96051 1.26953 9.12693C1.34254 9.29443 1.44991 9.44796 1.59056 9.57251L3.75403 11.474V9.4791H12.3435V11.4729L14.5059 9.57144C14.6476 9.44796 14.7528 9.29443 14.828 9.12693Z" stroke="#929292" stroke-width="0.75" stroke-miterlimit="10" stroke-linecap="round" stroke-linejoin="round"/>
<path d="M3.75391 9.479V11.4728L7.16714 14.4727L7.21223 14.433C7.45274 14.2225 7.74907 14.1173 8.04863 14.1173C8.34712 14.1173 8.64667 14.2225 8.88503 14.433L8.93012 14.4727L12.3434 11.4728V9.479H3.75391Z" stroke="#929292" stroke-width="0.75" stroke-miterlimit="10" stroke-linecap="round" stroke-linejoin="round"/>
<path d="M13.6445 1.25293H18.3035" stroke="#929292" stroke-width="0.75" stroke-miterlimit="10" stroke-linecap="round" stroke-linejoin="round"/>
<path d="M15.7539 3.25684H20.4119" stroke="#929292" stroke-width="0.75" stroke-miterlimit="10" stroke-linecap="round" stroke-linejoin="round"/>
<path d="M13.6445 5.26074H18.3035" stroke="#929292" stroke-width="0.75" stroke-miterlimit="10" stroke-linecap="round" stroke-linejoin="round"/>
</svg>
