<svg width="18" height="18" viewBox="0 0 18 18" fill="none" xmlns="http://www.w3.org/2000/svg">
<path d="M7.53732 1.18848C7.50086 1.18848 7.46076 1.19334 7.42309 1.20184C5.86161 1.5591 4.45689 2.37083 3.3596 3.54953C3.2551 3.66376 3.20406 3.8193 3.22593 3.97362C3.24902 4.12673 3.33894 4.26404 3.47261 4.34303C4.01336 4.66869 4.19806 5.37592 3.88333 5.92031C3.67676 6.27999 3.29155 6.50237 2.87718 6.50237C2.68033 6.50237 2.48469 6.45133 2.31092 6.3529C2.23315 6.30916 2.14444 6.28728 2.05695 6.28728C1.99255 6.28728 1.92814 6.29944 1.86617 6.32495C1.72157 6.38207 1.6122 6.50237 1.56602 6.65305C1.33393 7.41131 1.21484 8.19995 1.21484 8.99952C1.21484 9.7991 1.33393 10.5877 1.56602 11.3472C1.6122 11.4955 1.72157 11.617 1.86617 11.6753C1.92814 11.7008 1.99255 11.7118 2.05695 11.7118C2.14444 11.7118 2.23315 11.6899 2.31092 11.6449C2.48469 11.5501 2.68033 11.4979 2.87718 11.4979C3.29155 11.4979 3.67676 11.719 3.88333 12.0787C4.19927 12.6231 4.01336 13.3328 3.47261 13.656C3.33894 13.735 3.24781 13.8711 3.22593 14.0266C3.20284 14.181 3.25388 14.3365 3.35838 14.4519C4.45567 15.6294 5.86161 16.4412 7.42309 16.7984C7.46076 16.8069 7.49965 16.8118 7.53732 16.8118C7.65276 16.8118 7.76455 16.7741 7.8569 16.7012C7.98085 16.6052 8.05254 16.4594 8.05497 16.3038C8.06227 15.6707 8.58357 15.1579 9.21424 15.1579C9.8449 15.1579 10.365 15.6707 10.3759 16.3038C10.3784 16.4594 10.4488 16.6052 10.5716 16.7012C10.6639 16.7741 10.7757 16.8118 10.8912 16.8118C10.93 16.8118 10.9677 16.8069 11.0066 16.7984C12.5669 16.4412 13.9716 15.6294 15.0701 14.4519C15.1782 14.3377 15.2268 14.181 15.2025 14.0266C15.1807 13.8711 15.0895 13.7362 14.9571 13.656C14.4151 13.3328 14.2292 12.6231 14.5464 12.0787C14.7517 11.719 15.1369 11.4979 15.5513 11.4979C15.7481 11.4979 15.9438 11.5501 16.1176 11.6449C16.1953 11.6899 16.284 11.7118 16.3715 11.7118C16.4371 11.7118 16.5015 11.6996 16.5635 11.6753C16.7081 11.617 16.8199 11.4967 16.8649 11.3472C17.097 10.5877 17.2148 9.7991 17.2148 8.99952C17.2148 8.19995 17.097 7.41252 16.8649 6.65305C16.8199 6.50358 16.7081 6.38207 16.5635 6.32495C16.5015 6.29944 16.4371 6.28728 16.3715 6.28728C16.284 6.28728 16.1953 6.30916 16.1176 6.35412C15.9438 6.45133 15.7494 6.50237 15.5513 6.50237C15.1369 6.50237 14.7517 6.27999 14.5464 5.92031C14.2304 5.37592 14.4151 4.66869 14.9571 4.34303C15.0907 4.26404 15.1819 4.12673 15.2025 3.97362C15.2268 3.8193 15.177 3.66376 15.0701 3.54953C13.9728 2.37083 12.5669 1.56032 11.0066 1.20184C10.9665 1.19334 10.93 1.18969 10.8912 1.18969C10.7757 1.18969 10.6639 1.22736 10.5716 1.30027C10.4476 1.39627 10.3784 1.5433 10.3759 1.69884C10.365 2.32951 9.84612 2.84352 9.21424 2.84352C8.58235 2.84352 8.06227 2.32951 8.05497 1.69884C8.05254 1.5433 7.97963 1.39505 7.8569 1.30027C7.76455 1.22736 7.65276 1.18848 7.53732 1.18848Z" stroke="#071F27" stroke-width="0.75" stroke-miterlimit="10" stroke-linecap="round" stroke-linejoin="round"/>
<path d="M9.21203 12.9328C11.3851 12.9328 13.1467 11.1712 13.1467 8.99816C13.1467 6.8251 11.3851 5.06348 9.21203 5.06348C7.03896 5.06348 5.27734 6.8251 5.27734 8.99816C5.27734 11.1712 7.03896 12.9328 9.21203 12.9328Z" stroke="#071F27" stroke-width="0.75" stroke-miterlimit="10" stroke-linecap="round" stroke-linejoin="round"/>
</svg>
