<svg width="14" height="12" viewBox="0 0 14 12" fill="none" xmlns="http://www.w3.org/2000/svg">
<path d="M5.22461 0.990621C5.15829 0.993682 5.09555 1.02155 5.04883 1.06872C4.97794 1.09862 4.89681 1.10682 4.8418 1.15862L1.07813 4.69573C1.07614 4.6977 1.07419 4.69971 1.07227 4.70174C0.916578 4.85799 0.797104 4.97823 0.703125 5.09627C0.609146 5.2143 0.527344 5.34829 0.527344 5.51424C0.527344 5.68018 0.607463 5.81538 0.701172 5.93416C0.794881 6.05294 0.914625 6.17452 1.07031 6.33257C1.07288 6.33462 1.07548 6.33663 1.07812 6.33858L4.84179 9.87374C4.95604 9.9814 5.10777 10.0496 5.25976 10.0456C5.41176 10.0416 5.54848 9.97101 5.65039 9.87569C5.85421 9.68503 5.95703 9.39344 5.95703 9.05538V8.01827C8.78518 8.11865 11.4226 9.14678 13.0937 10.8679C13.2366 11.0151 13.4526 11.0417 13.6152 10.9753C13.7778 10.9089 13.9169 10.7283 13.9004 10.5202C13.5983 6.6777 10.2042 3.68653 5.95703 3.1335V1.98116C5.95707 1.73249 5.89701 1.50488 5.78125 1.321C5.66549 1.13711 5.46803 0.981016 5.22461 0.990926L5.22461 0.990621ZM5.24609 1.51992C5.25328 1.51963 5.28386 1.52192 5.33399 1.60192C5.38411 1.68152 5.42776 1.82143 5.42774 1.98082V3.33434C5.42759 3.39972 5.45166 3.46284 5.4953 3.51153C5.53894 3.56021 5.59906 3.59102 5.66406 3.59801C9.75134 4.03307 12.9581 6.85699 13.3281 10.4047C11.4791 8.57681 8.69115 7.47511 5.69531 7.43786C5.66039 7.43746 5.62574 7.44399 5.59335 7.45705C5.56097 7.47012 5.53149 7.48945 5.50661 7.51397C5.48174 7.53848 5.46196 7.56765 5.44843 7.59984C5.43489 7.63203 5.42786 7.66661 5.42774 7.70153V9.05504C5.42774 9.27546 5.34571 9.43566 5.28906 9.48864C5.26074 9.51514 5.24744 9.51591 5.24609 9.51601C5.24474 9.51604 5.23929 9.52104 5.20508 9.48864L1.44141 5.95348C1.29051 5.80022 1.17792 5.68477 1.11719 5.60778C1.05521 5.52918 1.05664 5.50522 1.05664 5.51406C1.05664 5.52306 1.05548 5.50175 1.11719 5.42415C1.17783 5.34795 1.28985 5.23454 1.44141 5.08236L1.44336 5.08037C1.44514 5.07837 1.44547 5.07837 1.44727 5.07638L5.20508 1.54509C5.23237 1.51939 5.24346 1.5198 5.24609 1.5197L5.24609 1.51992Z" fill="#071F27"/>
</svg>
