<svg width="36" height="36" viewBox="0 0 36 36" fill="none" xmlns="http://www.w3.org/2000/svg">
<rect x="0.25" y="0.25" width="35.5" height="35.5" rx="4.75" fill="white"/>
<path d="M12.1062 17.5571C11.9386 17.3895 11.9386 17.1177 12.1062 16.9501C12.2738 16.7825 12.5455 16.7825 12.7131 16.9501L15.9722 20.2093L15.8246 20.3569C15.6593 20.5223 15.5428 20.7179 15.475 20.926L12.1062 17.5571ZM23.89 14.9335L17.892 20.9317C17.8243 20.7254 17.7085 20.5315 17.5445 20.3675L17.3864 20.2093L23.2761 14.3195C23.4456 14.15 23.7205 14.15 23.89 14.3195C24.0595 14.4891 24.0595 14.764 23.89 14.9335ZM16.5317 21.064L16.6793 20.9164L16.8374 21.0746C17.005 21.2422 17.005 21.5139 16.8374 21.6815C16.7937 21.7253 16.7428 21.7576 16.6886 21.7785C16.6314 21.7575 16.5777 21.724 16.5317 21.678C16.3622 21.5085 16.3622 21.2336 16.5317 21.064Z" fill="#6336E9" stroke="#6336E9"/>
<rect x="0.25" y="0.25" width="35.5" height="35.5" rx="4.75" stroke="#6336E9" stroke-width="0.5"/>
</svg>
