<svg width="21" height="18" viewBox="0 0 21 18" fill="none" xmlns="http://www.w3.org/2000/svg">
<path d="M11.3129 15.2829C11.0377 15.5576 11.0377 16.004 11.3129 16.2787C11.5881 16.5534 12.0353 16.5534 12.3105 16.2787L18.482 10.1183C20.7938 7.81008 20.7924 4.03974 18.48 1.73217C16.1669 -0.577391 12.3938 -0.577391 10.0807 1.73217L1.4415 10.3551C-0.193183 11.9875 -0.192516 14.647 1.44216 16.2787C3.07418 17.9071 5.74311 17.9064 7.37446 16.2774L16.0123 7.65509C16.9673 6.70252 16.966 5.14862 16.0117 4.19606C15.058 3.24417 13.5007 3.24483 12.5477 4.19673L6.37686 10.3565C6.10163 10.6305 6.10163 11.0769 6.37686 11.3516C6.65208 11.6263 7.09923 11.6263 7.37446 11.3516L13.5447 5.19186C13.9505 4.78676 14.6089 4.78676 15.0147 5.1912C15.4212 5.59763 15.4219 6.25418 15.0154 6.65995L6.37752 15.2822C5.29329 16.3645 3.524 16.3658 2.4391 15.2829C1.3542 14.2006 1.3542 12.4332 2.43843 11.3503L11.0776 2.72731C12.8409 0.967196 15.7198 0.967196 17.4831 2.72731C19.2497 4.49074 19.2517 7.35907 17.4844 9.12251L11.3129 15.2829Z" fill="#071F27"/>
</svg>
