<svg width="26" height="25" viewBox="0 0 26 25" fill="none" xmlns="http://www.w3.org/2000/svg">
<rect x="1.21484" y="0.5" width="24" height="24" rx="5" fill="white"/>
<path d="M18.8906 19.8798C19.8328 19.8798 20.5966 19.116 20.5966 18.1738C20.5966 17.2316 19.8328 16.4678 18.8906 16.4678C17.9484 16.4678 17.1846 17.2316 17.1846 18.1738C17.1846 19.116 17.9484 19.8798 18.8906 19.8798Z" stroke="#07CEA1" stroke-width="0.75" stroke-miterlimit="10" stroke-linecap="round" stroke-linejoin="round"/>
<path d="M18.8898 8.53064C19.8316 8.53064 20.5951 7.76717 20.5951 6.82538C20.5951 5.88359 19.8316 5.12012 18.8898 5.12012C17.948 5.12012 17.1846 5.88359 17.1846 6.82538C17.1846 7.76717 17.948 8.53064 18.8898 8.53064Z" stroke="#07CEA1" stroke-width="0.75" stroke-miterlimit="10" stroke-linecap="round" stroke-linejoin="round"/>
<path d="M18.8906 14.206C19.8328 14.206 20.5966 13.4422 20.5966 12.5C20.5966 11.5578 19.8328 10.7939 18.8906 10.7939C17.9484 10.7939 17.1846 11.5578 17.1846 12.5C17.1846 13.4422 17.9484 14.206 18.8906 14.206Z" stroke="#07CEA1" stroke-width="0.75" stroke-miterlimit="10" stroke-linecap="round" stroke-linejoin="round"/>
<path d="M8.78717 15.4513C10.4171 15.4513 11.7384 14.13 11.7384 12.5001C11.7384 10.8701 10.4171 9.54883 8.78717 9.54883C7.15725 9.54883 5.83594 10.8701 5.83594 12.5001C5.83594 14.13 7.15725 15.4513 8.78717 15.4513Z" stroke="#07CEA1" stroke-width="0.75" stroke-miterlimit="10" stroke-linecap="round" stroke-linejoin="round"/>
<path d="M17.1867 18.1741H14.3359V6.82617H17.1867" stroke="#07CEA1" stroke-width="0.75" stroke-miterlimit="10" stroke-linecap="round" stroke-linejoin="round"/>
<path d="M11.8008 12.5H16.8644" stroke="#07CEA1" stroke-width="0.75" stroke-miterlimit="10" stroke-linecap="round" stroke-linejoin="round"/>
<rect x="1.21484" y="0.5" width="24" height="24" rx="5" stroke="#07CEA1" stroke-width="0.75"/>
</svg>
