<svg width="20" height="20" viewBox="0 0 20 20" fill="none" xmlns="http://www.w3.org/2000/svg">
<path d="M16.9199 19.2051C18.0687 19.2051 19 18.2736 19 17.1245C19 15.9754 18.0687 15.0439 16.9199 15.0439C15.7711 15.0439 14.8398 15.9754 14.8398 17.1245C14.8398 18.2736 15.7711 19.2051 16.9199 19.2051Z" stroke="white" stroke-width="1.25" stroke-miterlimit="10" stroke-linecap="round" stroke-linejoin="round"/>
<path d="M16.9151 5.36432C18.0634 5.36432 18.9943 4.43324 18.9943 3.2847C18.9943 2.13616 18.0634 1.20508 16.9151 1.20508C15.7668 1.20508 14.8359 2.13616 14.8359 3.2847C14.8359 4.43324 15.7668 5.36432 16.9151 5.36432Z" stroke="white" stroke-width="1.25" stroke-miterlimit="10" stroke-linecap="round" stroke-linejoin="round"/>
<path d="M16.9199 12.2861C18.0687 12.2861 19 11.3546 19 10.2056C19 9.0565 18.0687 8.125 16.9199 8.125C15.7711 8.125 14.8398 9.0565 14.8398 10.2056C14.8398 11.3546 15.7711 12.2861 16.9199 12.2861Z" stroke="white" stroke-width="1.25" stroke-miterlimit="10" stroke-linecap="round" stroke-linejoin="round"/>
<path d="M4.59833 13.8037C6.58563 13.8037 8.19666 12.1923 8.19666 10.2046C8.19666 8.21685 6.58563 6.60547 4.59833 6.60547C2.61103 6.60547 1 8.21685 1 10.2046C1 12.1923 2.61103 13.8037 4.59833 13.8037Z" stroke="white" stroke-width="1.25" stroke-miterlimit="10" stroke-linecap="round" stroke-linejoin="round"/>
<path d="M14.4759 16.8392H11V3H14.4759" stroke="white" stroke-width="1.25" stroke-miterlimit="10" stroke-linecap="round" stroke-linejoin="round"/>
<path d="M8.27734 10.2051H14.4513" stroke="white" stroke-width="1.25" stroke-miterlimit="10" stroke-linecap="round" stroke-linejoin="round"/>
</svg>
