<svg width="20" height="20" viewBox="0 0 20 20" fill="none" xmlns="http://www.w3.org/2000/svg">
<path d="M17.1358 18.7051C18.2846 18.7051 19.2159 17.7736 19.2159 16.6245C19.2159 15.4754 18.2846 14.5439 17.1358 14.5439C15.987 14.5439 15.0557 15.4754 15.0557 16.6245C15.0557 17.7736 15.987 18.7051 17.1358 18.7051Z" stroke="#07CEA1" stroke-miterlimit="10" stroke-linecap="round" stroke-linejoin="round"/>
<path d="M17.1309 4.86432C18.2792 4.86432 19.2101 3.93324 19.2101 2.7847C19.2101 1.63616 18.2792 0.705078 17.1309 0.705078C15.9826 0.705078 15.0518 1.63616 15.0518 2.7847C15.0518 3.93324 15.9826 4.86432 17.1309 4.86432Z" stroke="#07CEA1" stroke-miterlimit="10" stroke-linecap="round" stroke-linejoin="round"/>
<path d="M17.1358 11.7861C18.2846 11.7861 19.2159 10.8546 19.2159 9.70556C19.2159 8.5565 18.2846 7.625 17.1358 7.625C15.987 7.625 15.0557 8.5565 15.0557 9.70556C15.0557 10.8546 15.987 11.7861 17.1358 11.7861Z" stroke="#07CEA1" stroke-miterlimit="10" stroke-linecap="round" stroke-linejoin="round"/>
<path d="M4.81415 13.3037C6.80145 13.3037 8.41248 11.6923 8.41248 9.7046C8.41248 7.71685 6.80145 6.10547 4.81415 6.10547C2.82685 6.10547 1.21582 7.71685 1.21582 9.7046C1.21582 11.6923 2.82685 13.3037 4.81415 13.3037Z" stroke="#07CEA1" stroke-miterlimit="10" stroke-linecap="round" stroke-linejoin="round"/>
<path d="M15.0511 16.6244H11.5752V2.78516H15.0511" stroke="#07CEA1" stroke-miterlimit="10" stroke-linecap="round" stroke-linejoin="round"/>
<path d="M8.49316 9.70508H14.6671" stroke="#07CEA1" stroke-miterlimit="10" stroke-linecap="round" stroke-linejoin="round"/>
</svg>
