<svg width="20" height="20" viewBox="0 0 20 20" fill="none" xmlns="http://www.w3.org/2000/svg">
<path d="M10 8.76992V2.77148" stroke="white" stroke-width="1.25" stroke-miterlimit="10" stroke-linecap="round" stroke-linejoin="round"/>
<path d="M10.0017 11.1842C10.624 11.1842 11.1284 10.6797 11.1284 10.0574C11.1284 9.43513 10.624 8.93066 10.0017 8.93066C9.37944 8.93066 8.875 9.43513 8.875 10.0574C8.875 10.6797 9.37944 11.1842 10.0017 11.1842Z" stroke="white" stroke-width="1.25" stroke-miterlimit="10" stroke-linecap="round" stroke-linejoin="round"/>
<path d="M14.736 10.0576H11.3008" stroke="white" stroke-width="1.25" stroke-miterlimit="10" stroke-linecap="round" stroke-linejoin="round"/>
<path d="M19 10.0576C19 15.0275 14.9701 19.0576 9.99953 19.0576C5.02805 19.0576 1 15.0275 1 10.0576C1 5.08494 5.02805 1.05762 9.99953 1.05762" stroke="white" stroke-width="1.25" stroke-miterlimit="10" stroke-linecap="round" stroke-linejoin="round"/>
<path d="M17.1055 4.53418C17.846 5.48888 18.3995 6.59506 18.7109 7.79662" stroke="white" stroke-width="1.25" stroke-miterlimit="10" stroke-linecap="round" stroke-linejoin="round"/>
<path d="M12.2148 1.33203C13.4341 1.64154 14.5533 2.1979 15.5164 2.94595" stroke="white" stroke-width="1.25" stroke-miterlimit="10" stroke-linecap="round" stroke-linejoin="round"/>
</svg>
