<svg width="20" height="20" viewBox="0 0 20 20" fill="none" xmlns="http://www.w3.org/2000/svg">
<path d="M10.2158 8.26992V2.27148" stroke="#4522BA" stroke-miterlimit="10" stroke-linecap="round" stroke-linejoin="round"/>
<path d="M10.2175 10.6842C10.8398 10.6842 11.3442 10.1797 11.3442 9.55742C11.3442 8.93513 10.8398 8.43066 10.2175 8.43066C9.59526 8.43066 9.09082 8.93513 9.09082 9.55742C9.09082 10.1797 9.59526 10.6842 10.2175 10.6842Z" stroke="#4522BA" stroke-miterlimit="10" stroke-linecap="round" stroke-linejoin="round"/>
<path d="M14.9519 9.55762H11.5166" stroke="#4522BA" stroke-miterlimit="10" stroke-linecap="round" stroke-linejoin="round"/>
<path d="M19.2158 9.55762C19.2158 14.5275 15.1859 18.5576 10.2154 18.5576C5.24387 18.5576 1.21582 14.5275 1.21582 9.55762C1.21582 4.58494 5.24387 0.557617 10.2154 0.557617" stroke="#4522BA" stroke-miterlimit="10" stroke-linecap="round" stroke-linejoin="round"/>
<path d="M17.3213 4.03418C18.0618 4.98888 18.6153 6.09506 18.9267 7.29662" stroke="#4522BA" stroke-miterlimit="10" stroke-linecap="round" stroke-linejoin="round"/>
<path d="M12.4307 0.832031C13.6499 1.14154 14.7691 1.6979 15.7322 2.44595" stroke="#4522BA" stroke-miterlimit="10" stroke-linecap="round" stroke-linejoin="round"/>
</svg>
