<svg width="26" height="25" viewBox="0 0 26 25" fill="none" xmlns="http://www.w3.org/2000/svg">
<rect x="1.21484" y="0.5" width="24" height="24" rx="5" fill="white"/>
<path d="M13.2148 11.4441V6.52539" stroke="#4522BA" stroke-width="0.75" stroke-miterlimit="10" stroke-linecap="round" stroke-linejoin="round"/>
<path d="M13.2169 13.424C13.7272 13.424 14.1408 13.0104 14.1408 12.5001C14.1408 11.9898 13.7272 11.5762 13.2169 11.5762C12.7066 11.5762 12.293 11.9898 12.293 12.5001C12.293 13.0104 12.7066 13.424 13.2169 13.424Z" stroke="#4522BA" stroke-width="0.75" stroke-miterlimit="10" stroke-linecap="round" stroke-linejoin="round"/>
<path d="M17.1061 12.5H14.2891" stroke="#4522BA" stroke-width="0.75" stroke-miterlimit="10" stroke-linecap="round" stroke-linejoin="round"/>
<path d="M20.5967 12.5001C20.5967 16.5754 17.292 19.8801 13.2159 19.8801C9.13911 19.8801 5.83594 16.5754 5.83594 12.5001C5.83594 8.42252 9.13911 5.12012 13.2159 5.12012" stroke="#4522BA" stroke-width="0.75" stroke-miterlimit="10" stroke-linecap="round" stroke-linejoin="round"/>
<path d="M19.043 7.9707C19.6502 8.75356 20.1042 9.66063 20.3595 10.6459" stroke="#4522BA" stroke-width="0.75" stroke-miterlimit="10" stroke-linecap="round" stroke-linejoin="round"/>
<path d="M15.0322 5.34473C16.0321 5.59852 16.9499 6.05474 17.7396 6.66814" stroke="#4522BA" stroke-width="0.75" stroke-miterlimit="10" stroke-linecap="round" stroke-linejoin="round"/>
<rect x="1.21484" y="0.5" width="24" height="24" rx="5" stroke="#4522BA" stroke-width="0.75"/>
</svg>
