<svg width="26" height="26" viewBox="0 0 26 26" fill="none" xmlns="http://www.w3.org/2000/svg">
<path d="M25.2907 12.9165C25.2907 19.7372 19.7618 25.2665 12.9416 25.2665C6.1213 25.2665 0.592383 19.7372 0.592383 12.9165C0.592383 6.09578 6.1213 0.566504 12.9416 0.566504C19.7618 0.566504 25.2907 6.09578 25.2907 12.9165Z" fill="white" stroke="#9595AA" stroke-width="0.3"/>
<path d="M19.7542 8.09819C19.5568 7.80917 19.2249 7.61816 18.8504 7.61816H7.03826C6.67157 7.61816 6.34732 7.80239 6.14844 8.08134L12.966 13.766L19.7542 8.09819Z" fill="#9595AA"/>
<path d="M5.94141 9.05005V17.121C5.94141 17.7227 6.43369 18.215 7.03536 18.215H18.8475C19.4491 18.215 19.9414 17.7227 19.9414 17.121V9.07915L12.9631 14.9053L5.94141 9.05005Z" fill="#9595AA"/>
</svg>
