<svg width="17" height="16" viewBox="0 0 17 16" fill="none" xmlns="http://www.w3.org/2000/svg">
<path d="M2.63184 3.92402C2.63184 2.94218 3.42777 2.14624 4.40961 2.14624H7.9814C8.96324 2.14624 9.75918 2.94218 9.75918 3.92402V12.0862C9.75918 13.0681 8.96324 13.864 7.9814 13.864H4.40961C3.42777 13.864 2.63184 13.0681 2.63184 12.0862V3.92402Z" fill="#3D4963"/>
<path fill-rule="evenodd" clip-rule="evenodd" d="M14.6409 5.52686L16.0404 6.92639C16.6497 7.53564 16.6497 8.52686 16.0404 9.13611L14.6409 10.5356C14.5188 10.6577 14.3589 10.7188 14.1989 10.7188C14.0389 10.7188 13.879 10.6577 13.757 10.5356C13.5128 10.2916 13.5128 9.89587 13.757 9.65186L14.7524 8.65625H11.1543C10.8091 8.65625 10.5293 8.37646 10.5293 8.03125C10.5293 7.68604 10.8091 7.40625 11.1543 7.40625H14.7524L13.757 6.41064C13.5128 6.16663 13.5128 5.77087 13.757 5.52686C14.001 5.28271 14.3967 5.28271 14.6409 5.52686Z" fill="#3D4963"/>
<path d="M11.7793 12.25V13.5C11.7793 14.8785 10.6578 16 9.2793 16H2.99805C1.61951 16 0.498047 14.8785 0.498047 13.5V2.5C0.498047 1.12146 1.61951 0 2.99805 0H9.2793C10.6578 0 11.7793 1.12146 11.7793 2.5V3.75C11.7793 4.09521 11.4995 4.375 11.1543 4.375C10.8091 4.375 10.5293 4.09521 10.5293 3.75V2.5C10.5293 1.81079 9.96851 1.25 9.2793 1.25H2.99805C2.30884 1.25 1.74805 1.81079 1.74805 2.5V13.5C1.74805 14.1892 2.30884 14.75 2.99805 14.75H9.2793C9.96851 14.75 10.5293 14.1892 10.5293 13.5V12.25C10.5293 11.9048 10.8091 11.625 11.1543 11.625C11.4995 11.625 11.7793 11.9048 11.7793 12.25Z" fill="#3D4963"/>
</svg>
