<svg width="18" height="18" viewBox="0 0 18 18" fill="none" xmlns="http://www.w3.org/2000/svg">
<path d="M9.21403 1C8.8437 1 8.49044 1.15189 8.23446 1.41811L1.59246 8.33998C1.21616 8.73249 1.11036 9.31188 1.32368 9.81276C1.53615 10.3102 2.02252 10.6345 2.5618 10.6387V15.6424C2.5618 16.3925 3.16934 17 3.91938 17H6.32821C7.07825 17 7.68665 16.3925 7.68665 15.6424V12.7779H10.7414V15.6424C10.7414 16.3925 11.3498 17 12.0999 17H14.5087C15.2587 17 15.8663 16.3925 15.8663 15.6424V10.6379C16.4055 10.6336 16.8919 10.3094 17.1044 9.8119C17.3177 9.31102 17.2119 8.73164 16.8356 8.33913L10.1945 1.41811C9.93762 1.15189 9.58436 1 9.21403 1Z" stroke="#34464D" stroke-width="0.75" stroke-miterlimit="10" stroke-linecap="round" stroke-linejoin="round"/>
</svg>
