<svg width="22" height="11" viewBox="0 0 22 11" fill="none" xmlns="http://www.w3.org/2000/svg">
<path d="M5.01384 0.150513C7.20337 0.150508 9.04381 1.71743 9.46697 3.78687L20.9229 3.78689C21.425 3.78689 21.832 4.19389 21.832 4.69596L21.832 9.24141C21.832 9.74344 21.425 10.1505 20.9229 10.1505C20.4209 10.1505 20.0139 9.74344 20.0138 9.24138L20.0138 5.60505L17.7411 5.60503L17.7411 8.33227C17.7411 8.83434 17.3341 9.24138 16.832 9.24138C16.33 9.24138 15.9229 8.83434 15.923 8.33231L15.9229 5.60507L9.46697 5.60504C9.0438 7.67448 7.20336 9.24141 5.01383 9.24141C2.51422 9.24142 0.46838 7.19558 0.468384 4.69596C0.46838 2.19636 2.51424 0.150502 5.01384 0.150513ZM5.01385 1.96868C3.49685 1.96869 2.28657 3.17899 2.28657 4.69596C2.28657 6.21296 3.49687 7.42322 5.01385 7.4232C6.53084 7.42322 7.74111 6.21295 7.74112 4.69595C7.74112 3.17898 6.53082 1.96869 5.01385 1.96868Z" fill="#C4C4C4"/>
</svg>
