<svg width="187" height="45" viewBox="0 0 187 45" fill="none" xmlns="http://www.w3.org/2000/svg">
<path d="M60.4909 30.9061C58.7443 30.9061 57.3909 30.4527 56.4309 29.5461C55.4843 28.6261 54.9843 27.2461 54.9309 25.4061C54.9176 25.0061 54.9109 24.4394 54.9109 23.7061C54.9109 22.9727 54.9176 22.4127 54.9309 22.0261C54.9843 20.2261 55.5043 18.8594 56.4909 17.9261C57.4776 16.9794 58.8109 16.5061 60.4909 16.5061C62.1576 16.5061 63.4843 16.9794 64.4709 17.9261C65.4576 18.8594 65.9776 20.2261 66.0309 22.0261C66.0576 22.7994 66.0709 23.3594 66.0709 23.7061C66.0709 24.0394 66.0576 24.6061 66.0309 25.4061C65.9776 27.2461 65.4709 28.6261 64.5109 29.5461C63.5643 30.4527 62.2243 30.9061 60.4909 30.9061ZM60.4909 29.2061C61.5443 29.2061 62.3843 28.8861 63.0109 28.2461C63.6376 27.6061 63.9776 26.6261 64.0309 25.3061C64.0576 24.5061 64.0709 23.9727 64.0709 23.7061C64.0709 23.4127 64.0576 22.8794 64.0309 22.1061C63.9776 20.7861 63.6309 19.8061 62.9909 19.1661C62.3643 18.5261 61.5309 18.2061 60.4909 18.2061C59.4376 18.2061 58.5909 18.5261 57.9509 19.1661C57.3243 19.8061 56.9843 20.7861 56.9309 22.1061C56.9176 22.4927 56.9109 23.0261 56.9109 23.7061C56.9109 24.3727 56.9176 24.9061 56.9309 25.3061C56.9843 26.6261 57.3243 27.6061 57.9509 28.2461C58.5909 28.8861 59.4376 29.2061 60.4909 29.2061ZM69.2061 34.5061C69.0728 34.5061 68.9594 34.4594 68.8661 34.3661C68.7861 34.2861 68.7461 34.1794 68.7461 34.0461V20.7661C68.7461 20.6327 68.7861 20.5261 68.8661 20.4461C68.9594 20.3527 69.0728 20.3061 69.2061 20.3061H70.1261C70.2594 20.3061 70.3661 20.3527 70.4461 20.4461C70.5394 20.5261 70.5861 20.6327 70.5861 20.7661V21.6461C71.3328 20.6194 72.4261 20.1061 73.8661 20.1061C75.2661 20.1061 76.3128 20.5461 77.0061 21.4261C77.7128 22.3061 78.0928 23.4394 78.1461 24.8261C78.1594 24.9727 78.1661 25.1994 78.1661 25.5061C78.1661 25.8127 78.1594 26.0394 78.1461 26.1861C78.0928 27.5594 77.7128 28.6927 77.0061 29.5861C76.2994 30.4661 75.2528 30.9061 73.8661 30.9061C72.4794 30.9061 71.3994 30.4061 70.6261 29.4061V34.0461C70.6261 34.1794 70.5861 34.2861 70.5061 34.3661C70.4261 34.4594 70.3194 34.5061 70.1861 34.5061H69.2061ZM73.4461 29.2861C74.3928 29.2861 75.0794 28.9927 75.5061 28.4061C75.9461 27.8194 76.1861 27.0461 76.2261 26.0861C76.2394 25.9527 76.2461 25.7594 76.2461 25.5061C76.2461 22.9861 75.3128 21.7261 73.4461 21.7261C72.5261 21.7261 71.8328 22.0327 71.3661 22.6461C70.9128 23.2461 70.6661 23.9661 70.6261 24.8061L70.6061 25.5661L70.6261 26.3461C70.6528 27.1327 70.9061 27.8194 71.3861 28.4061C71.8661 28.9927 72.5528 29.2861 73.4461 29.2861ZM84.583 30.7061C82.4763 30.7061 81.423 29.5327 81.423 27.1861V21.9061H79.863C79.7296 21.9061 79.6163 21.8661 79.523 21.7861C79.443 21.6927 79.403 21.5794 79.403 21.4461V20.7661C79.403 20.6327 79.443 20.5261 79.523 20.4461C79.6163 20.3527 79.7296 20.3061 79.863 20.3061H81.423V16.9661C81.423 16.8327 81.463 16.7261 81.543 16.6461C81.6363 16.5527 81.7496 16.5061 81.883 16.5061H82.823C82.9563 16.5061 83.063 16.5527 83.143 16.6461C83.2363 16.7261 83.283 16.8327 83.283 16.9661V20.3061H85.763C85.8963 20.3061 86.003 20.3527 86.083 20.4461C86.1763 20.5261 86.223 20.6327 86.223 20.7661V21.4461C86.223 21.5794 86.1763 21.6927 86.083 21.7861C86.003 21.8661 85.8963 21.9061 85.763 21.9061H83.283V27.0461C83.283 27.7127 83.3963 28.2194 83.623 28.5661C83.8496 28.8994 84.223 29.0661 84.743 29.0661H85.963C86.0963 29.0661 86.203 29.1127 86.283 29.2061C86.3763 29.2861 86.423 29.3927 86.423 29.5261V30.2461C86.423 30.3794 86.3763 30.4927 86.283 30.5861C86.203 30.6661 86.0963 30.7061 85.963 30.7061H84.583ZM88.6355 18.3661C88.5021 18.3661 88.3888 18.3261 88.2955 18.2461C88.2155 18.1527 88.1755 18.0394 88.1755 17.9061V16.8261C88.1755 16.6927 88.2155 16.5794 88.2955 16.4861C88.3888 16.3927 88.5021 16.3461 88.6355 16.3461H89.8955C90.0288 16.3461 90.1421 16.3927 90.2355 16.4861C90.3288 16.5794 90.3755 16.6927 90.3755 16.8261V17.9061C90.3755 18.0394 90.3288 18.1527 90.2355 18.2461C90.1421 18.3261 90.0288 18.3661 89.8955 18.3661H88.6355ZM88.7955 30.7061C88.6621 30.7061 88.5488 30.6661 88.4555 30.5861C88.3755 30.4927 88.3355 30.3794 88.3355 30.2461V20.7661C88.3355 20.6327 88.3755 20.5261 88.4555 20.4461C88.5488 20.3527 88.6621 20.3061 88.7955 20.3061H89.7555C89.8888 20.3061 89.9955 20.3527 90.0755 20.4461C90.1688 20.5261 90.2155 20.6327 90.2155 20.7661V30.2461C90.2155 30.3794 90.1688 30.4927 90.0755 30.5861C89.9955 30.6661 89.8888 30.7061 89.7555 30.7061H88.7955ZM93.6392 30.7061C93.5059 30.7061 93.3926 30.6661 93.2992 30.5861C93.2192 30.4927 93.1792 30.3794 93.1792 30.2461V20.7661C93.1792 20.6327 93.2192 20.5261 93.2992 20.4461C93.3926 20.3527 93.5059 20.3061 93.6392 20.3061H94.5392C94.6726 20.3061 94.7792 20.3527 94.8592 20.4461C94.9526 20.5261 94.9992 20.6327 94.9992 20.7661V21.4661C95.6926 20.5594 96.6592 20.1061 97.8992 20.1061C99.3792 20.1061 100.426 20.7194 101.039 21.9461C101.359 21.3861 101.813 20.9394 102.399 20.6061C102.986 20.2727 103.646 20.1061 104.379 20.1061C105.473 20.1061 106.366 20.4794 107.059 21.2261C107.753 21.9727 108.099 23.0527 108.099 24.4661V30.2461C108.099 30.3794 108.053 30.4927 107.959 30.5861C107.879 30.6661 107.773 30.7061 107.639 30.7061H106.699C106.566 30.7061 106.453 30.6661 106.359 30.5861C106.279 30.4927 106.239 30.3794 106.239 30.2461V24.6461C106.239 23.6061 106.019 22.8594 105.579 22.4061C105.153 21.9527 104.586 21.7261 103.879 21.7261C103.253 21.7261 102.713 21.9594 102.259 22.4261C101.806 22.8794 101.579 23.6194 101.579 24.6461V30.2461C101.579 30.3794 101.533 30.4927 101.439 30.5861C101.359 30.6661 101.253 30.7061 101.119 30.7061H100.179C100.046 30.7061 99.9326 30.6661 99.8392 30.5861C99.7592 30.4927 99.7192 30.3794 99.7192 30.2461V24.6461C99.7192 23.6061 99.4926 22.8594 99.0392 22.4061C98.5992 21.9527 98.0392 21.7261 97.3592 21.7261C96.7326 21.7261 96.1926 21.9594 95.7392 22.4261C95.2859 22.8794 95.0592 23.6127 95.0592 24.6261V30.2461C95.0592 30.3794 95.0126 30.4927 94.9192 30.5861C94.8392 30.6661 94.7326 30.7061 94.5992 30.7061H93.6392ZM113.853 30.9061C113.199 30.9061 112.593 30.7727 112.033 30.5061C111.473 30.2394 111.026 29.8794 110.693 29.4261C110.373 28.9594 110.213 28.4461 110.213 27.8861C110.213 27.0061 110.573 26.2861 111.293 25.7261C112.026 25.1527 113.013 24.7794 114.253 24.6061L117.233 24.1861V23.6061C117.233 22.2461 116.453 21.5661 114.893 21.5661C114.306 21.5661 113.826 21.6927 113.453 21.9461C113.079 22.1861 112.799 22.4727 112.613 22.8061C112.573 22.9261 112.519 23.0127 112.453 23.0661C112.399 23.1194 112.319 23.1461 112.213 23.1461H111.353C111.233 23.1461 111.126 23.1061 111.033 23.0261C110.953 22.9327 110.913 22.8261 110.913 22.7061C110.926 22.3861 111.073 22.0261 111.353 21.6261C111.646 21.2127 112.093 20.8594 112.693 20.5661C113.293 20.2594 114.033 20.1061 114.913 20.1061C116.406 20.1061 117.479 20.4594 118.133 21.1661C118.786 21.8594 119.113 22.7261 119.113 23.7661V30.2461C119.113 30.3794 119.066 30.4927 118.973 30.5861C118.893 30.6661 118.786 30.7061 118.653 30.7061H117.733C117.599 30.7061 117.486 30.6661 117.393 30.5861C117.313 30.4927 117.273 30.3794 117.273 30.2461V29.3861C116.979 29.8127 116.553 30.1727 115.993 30.4661C115.433 30.7594 114.719 30.9061 113.853 30.9061ZM114.273 29.4061C115.139 29.4061 115.846 29.1261 116.393 28.5661C116.953 27.9927 117.233 27.1727 117.233 26.1061V25.5461L114.913 25.8861C113.966 26.0194 113.253 26.2461 112.773 26.5661C112.293 26.8727 112.053 27.2661 112.053 27.7461C112.053 28.2794 112.273 28.6927 112.713 28.9861C113.153 29.2661 113.673 29.4061 114.273 29.4061Z" fill="#00BAFF"/>
<path d="M132.19 30.9061C130.403 30.9061 129.043 30.4261 128.11 29.4661C127.19 28.5061 126.697 27.1794 126.63 25.4861C126.617 25.1261 126.61 24.5394 126.61 23.7261C126.61 22.8994 126.617 22.2994 126.63 21.9261C126.697 20.2461 127.197 18.9261 128.13 17.9661C129.063 16.9927 130.417 16.5061 132.19 16.5061C133.377 16.5061 134.383 16.7194 135.21 17.1461C136.037 17.5594 136.663 18.1061 137.09 18.7861C137.517 19.4661 137.75 20.1927 137.79 20.9661V21.0061C137.79 21.1127 137.743 21.2061 137.65 21.2861C137.57 21.3527 137.477 21.3861 137.37 21.3861H136.27C136.003 21.3861 135.837 21.2327 135.77 20.9261C135.543 19.9261 135.137 19.2261 134.55 18.8261C133.963 18.4127 133.177 18.2061 132.19 18.2061C129.897 18.2061 128.71 19.4794 128.63 22.0261C128.617 22.3861 128.61 22.9394 128.61 23.6861C128.61 24.4327 128.617 24.9994 128.63 25.3861C128.71 27.9327 129.897 29.2061 132.19 29.2061C133.177 29.2061 133.963 29.0061 134.55 28.6061C135.15 28.1927 135.557 27.4861 135.77 26.4861C135.81 26.3127 135.87 26.1927 135.95 26.1261C136.03 26.0594 136.137 26.0261 136.27 26.0261H137.37C137.49 26.0261 137.59 26.0661 137.67 26.1461C137.763 26.2127 137.803 26.3061 137.79 26.4261C137.75 27.2127 137.517 27.9461 137.09 28.6261C136.663 29.3061 136.037 29.8594 135.21 30.2861C134.383 30.6994 133.377 30.9061 132.19 30.9061ZM140.69 30.7061C140.557 30.7061 140.444 30.6661 140.35 30.5861C140.27 30.4927 140.23 30.3794 140.23 30.2461V16.9661C140.23 16.8327 140.27 16.7261 140.35 16.6461C140.444 16.5527 140.557 16.5061 140.69 16.5061H141.69C141.824 16.5061 141.93 16.5527 142.01 16.6461C142.104 16.7261 142.15 16.8327 142.15 16.9661V21.6261C142.537 21.1327 142.99 20.7594 143.51 20.5061C144.03 20.2394 144.677 20.1061 145.45 20.1061C146.73 20.1061 147.724 20.5194 148.43 21.3461C149.15 22.1594 149.51 23.2461 149.51 24.6061V30.2461C149.51 30.3794 149.464 30.4927 149.37 30.5861C149.29 30.6661 149.184 30.7061 149.05 30.7061H148.05C147.917 30.7061 147.804 30.6661 147.71 30.5861C147.63 30.4927 147.59 30.3794 147.59 30.2461V24.7061C147.59 23.7594 147.357 23.0261 146.89 22.5061C146.437 21.9861 145.777 21.7261 144.91 21.7261C144.07 21.7261 143.397 21.9927 142.89 22.5261C142.397 23.0461 142.15 23.7727 142.15 24.7061V30.2461C142.15 30.3794 142.104 30.4927 142.01 30.5861C141.93 30.6661 141.824 30.7061 141.69 30.7061H140.69ZM155.298 30.9061C154.645 30.9061 154.038 30.7727 153.478 30.5061C152.918 30.2394 152.471 29.8794 152.138 29.4261C151.818 28.9594 151.658 28.4461 151.658 27.8861C151.658 27.0061 152.018 26.2861 152.738 25.7261C153.471 25.1527 154.458 24.7794 155.698 24.6061L158.678 24.1861V23.6061C158.678 22.2461 157.898 21.5661 156.338 21.5661C155.751 21.5661 155.271 21.6927 154.898 21.9461C154.525 22.1861 154.245 22.4727 154.058 22.8061C154.018 22.9261 153.965 23.0127 153.898 23.0661C153.845 23.1194 153.765 23.1461 153.658 23.1461H152.798C152.678 23.1461 152.571 23.1061 152.478 23.0261C152.398 22.9327 152.358 22.8261 152.358 22.7061C152.371 22.3861 152.518 22.0261 152.798 21.6261C153.091 21.2127 153.538 20.8594 154.138 20.5661C154.738 20.2594 155.478 20.1061 156.358 20.1061C157.851 20.1061 158.925 20.4594 159.578 21.1661C160.231 21.8594 160.558 22.7261 160.558 23.7661V30.2461C160.558 30.3794 160.511 30.4927 160.418 30.5861C160.338 30.6661 160.231 30.7061 160.098 30.7061H159.178C159.045 30.7061 158.931 30.6661 158.838 30.5861C158.758 30.4927 158.718 30.3794 158.718 30.2461V29.3861C158.425 29.8127 157.998 30.1727 157.438 30.4661C156.878 30.7594 156.165 30.9061 155.298 30.9061ZM155.718 29.4061C156.585 29.4061 157.291 29.1261 157.838 28.5661C158.398 27.9927 158.678 27.1727 158.678 26.1061V25.5461L156.358 25.8861C155.411 26.0194 154.698 26.2461 154.218 26.5661C153.738 26.8727 153.498 27.2661 153.498 27.7461C153.498 28.2794 153.718 28.6927 154.158 28.9861C154.598 29.2661 155.118 29.4061 155.718 29.4061ZM167.395 30.7061C165.289 30.7061 164.235 29.5327 164.235 27.1861V21.9061H162.675C162.542 21.9061 162.429 21.8661 162.335 21.7861C162.255 21.6927 162.215 21.5794 162.215 21.4461V20.7661C162.215 20.6327 162.255 20.5261 162.335 20.4461C162.429 20.3527 162.542 20.3061 162.675 20.3061H164.235V16.9661C164.235 16.8327 164.275 16.7261 164.355 16.6461C164.449 16.5527 164.562 16.5061 164.695 16.5061H165.635C165.769 16.5061 165.875 16.5527 165.955 16.6461C166.049 16.7261 166.095 16.8327 166.095 16.9661V20.3061H168.575C168.709 20.3061 168.815 20.3527 168.895 20.4461C168.989 20.5261 169.035 20.6327 169.035 20.7661V21.4461C169.035 21.5794 168.989 21.6927 168.895 21.7861C168.815 21.8661 168.709 21.9061 168.575 21.9061H166.095V27.0461C166.095 27.7127 166.209 28.2194 166.435 28.5661C166.662 28.8994 167.035 29.0661 167.555 29.0661H168.775C168.909 29.0661 169.015 29.1127 169.095 29.2061C169.189 29.2861 169.235 29.3927 169.235 29.5261V30.2461C169.235 30.3794 169.189 30.4927 169.095 30.5861C169.015 30.6661 168.909 30.7061 168.775 30.7061H167.395Z" fill="#071F27"/>
<path fill-rule="evenodd" clip-rule="evenodd" d="M36.6215 14.6965L30.8113 24.7601C30.2096 25.8023 28.877 26.1593 27.8349 25.5577L17.7713 19.7474C16.7291 19.1457 16.3721 17.8132 16.9738 16.7711L22.784 6.70741C23.3857 5.66529 24.7182 5.30823 25.7604 5.9099L35.824 11.7201C36.8661 12.3218 37.2232 13.6544 36.6215 14.6965ZM30.1601 24.3842L35.9704 14.3206C36.3644 13.6381 36.1306 12.7653 35.4481 12.3713L25.3844 6.56106C24.7019 6.16702 23.8292 6.40086 23.4352 7.08336L17.6249 17.147C17.2309 17.8295 17.4647 18.7022 18.1472 19.0963L28.2109 24.9065C28.8934 25.3005 29.7661 25.0667 30.1601 24.3842Z" fill="#00BAFF" stroke="#00BAFF" stroke-width="0.3"/>
<path fill-rule="evenodd" clip-rule="evenodd" d="M29.7668 18.117C29.8164 18.3209 29.6914 18.5264 29.4876 18.576C27.5781 19.0412 26.1623 19.1197 25.0886 18.4985C24.0128 17.8762 23.3955 16.6185 22.8822 14.7577C22.8264 14.5554 22.9451 14.3462 23.1474 14.2904C23.3497 14.2346 23.5589 14.3534 23.6147 14.5556C24.124 16.4019 24.6777 17.383 25.4691 17.8408C26.2626 18.2999 27.4101 18.3 29.3077 17.8378C29.5116 17.7881 29.7171 17.9132 29.7668 18.117Z" fill="#00BAFF" stroke="#00BAFF" stroke-width="0.3" stroke-linecap="round" stroke-linejoin="bevel"/>
<path fill-rule="evenodd" clip-rule="evenodd" d="M24.4311 12.0582C24.3814 11.8543 24.5065 11.6488 24.7103 11.5992C25.2828 11.4597 25.7984 11.4087 26.2164 11.6505C26.6365 11.8935 26.8425 12.365 26.9967 12.9239C27.0525 13.1262 26.9338 13.3354 26.7315 13.3912C26.5292 13.447 26.32 13.3283 26.2642 13.126C26.1141 12.5816 25.9716 12.3867 25.8359 12.3082C25.6981 12.2285 25.4508 12.2008 24.8901 12.3374C24.6863 12.3871 24.4808 12.262 24.4311 12.0582Z" fill="#00BAFF" stroke="#00BAFF" stroke-width="0.3" stroke-linecap="round" stroke-linejoin="bevel"/>
<path fill-rule="evenodd" clip-rule="evenodd" d="M31.3973 16.0782C31.5987 16.0192 31.7142 15.8082 31.6553 15.6068C31.4898 15.0413 31.2761 14.5693 30.8577 14.3282C30.4372 14.0859 29.9259 14.1432 29.3648 14.2892C29.1617 14.342 29.0399 14.5494 29.0927 14.7525C29.1455 14.9555 29.3529 15.0773 29.556 15.0245C30.1026 14.8824 30.3426 14.9083 30.4784 14.9866C30.6163 15.0661 30.7639 15.2664 30.926 15.8202C30.9849 16.0216 31.1959 16.1371 31.3973 16.0782Z" fill="#00BAFF" stroke="#00BAFF" stroke-width="0.3" stroke-linecap="round" stroke-linejoin="bevel"/>
<path fill-rule="evenodd" clip-rule="evenodd" d="M28.0555 43.2643C27.8676 43.3528 27.6436 43.2723 27.5551 43.0845L26.1127 40.0238C26.0242 39.836 26.1047 39.612 26.2925 39.5235C26.4803 39.435 26.7043 39.5155 26.7928 39.7033L27.8233 41.8898C28.2755 40.1437 28.0464 38.8848 27.5101 37.8735C26.9145 36.7504 25.9266 35.8958 24.8945 35.0029C24.8126 34.9321 24.7304 34.861 24.6481 34.7895C23.5573 33.8418 22.4411 32.8181 21.9875 31.3921C21.5258 29.9409 21.7723 28.1647 23.1629 25.7561L23.814 26.132C22.4804 28.4419 22.331 29.9916 22.704 31.1642C23.085 32.362 24.034 33.2599 25.1412 34.2219C25.2281 34.2973 25.3159 34.3732 25.4044 34.4496C26.415 35.3223 27.5094 36.2673 28.1743 37.5213C28.8264 38.751 29.0545 40.2456 28.5141 42.2169L30.7956 41.1417C30.9834 41.0532 31.2074 41.1337 31.2959 41.3215C31.3844 41.5093 31.3039 41.7333 31.1161 41.8218L28.0555 43.2643Z" fill="#071F27" stroke="#071F27" stroke-width="0.3"/>
<path fill-rule="evenodd" clip-rule="evenodd" d="M2.32346 28.4078C2.34071 28.6147 2.52243 28.7684 2.72934 28.7512L6.10117 28.47C6.30809 28.4528 6.46184 28.2711 6.44458 28.0641C6.42733 27.8572 6.24561 27.7035 6.0387 27.7207L3.62988 27.9216C4.91597 26.6569 6.12072 26.2259 7.26469 26.1847C8.53515 26.1389 9.76919 26.5672 11.0584 27.0145C11.1608 27.05 11.2635 27.0857 11.3665 27.1212C12.7327 27.592 14.1773 28.0469 15.6391 27.7267C17.1267 27.4009 18.5417 26.2993 19.9323 23.8907L19.2811 23.5148C17.9475 25.8247 16.6801 26.729 15.4782 26.9922C14.2503 27.2612 12.9982 26.8883 11.6115 26.4103C11.5027 26.3729 11.3931 26.3347 11.2827 26.2963C10.0216 25.8574 8.6561 25.3822 7.23762 25.4333C5.84662 25.4834 4.43821 26.0332 3.00118 27.4869L2.79162 24.9734C2.77437 24.7665 2.59265 24.6128 2.38574 24.63C2.17883 24.6473 2.02507 24.829 2.04233 25.0359L2.32346 28.4078Z" fill="#071F27" stroke="#071F27" stroke-width="0.3"/>
<path fill-rule="evenodd" clip-rule="evenodd" d="M18.6999 35.0722L15.4316 35.9479C15.2311 36.0016 15.0249 35.8826 14.9712 35.6821L14.0955 32.4138C14.0417 32.2133 14.1608 32.0071 14.3613 31.9534C14.5619 31.8996 14.768 32.0187 14.8217 32.2192L15.4626 34.6108L21.2222 24.6348L21.8733 25.0108L16.1137 34.9867L18.5053 34.3459C18.7058 34.2922 18.912 34.4112 18.9657 34.6117C19.0194 34.8123 18.9004 35.0184 18.6999 35.0722Z" fill="#071F27" stroke="#071F27" stroke-width="0.3"/>
</svg>
