<svg width="14" height="18" viewBox="0 0 14 18" fill="none" xmlns="http://www.w3.org/2000/svg">
<path d="M10.0403 4.72175C10.0403 2.66052 10.0407 0.965694 6.82857 0.965489C3.97877 0.965307 4.2982 0.959961 3.78626 0.959961C2.34861 0.959961 1.08008 1.1657 1.08008 2.95966C1.08008 4.75362 1.08095 11.847 1.08095 14.9784C1.08022 17.1449 2.35888 16.9449 3.78626 16.9449C5.5069 16.9449 5.78774 16.9346 6.82857 16.9447C10.0403 16.9758 10.0403 15.7219 10.0403 13.2067" stroke="#071F27" stroke-width="0.75"/>
<path d="M13.0052 8.96634C13.1516 8.81989 13.1516 8.58245 13.0052 8.43601L10.6187 6.04952C10.4722 5.90307 10.2348 5.90307 10.0884 6.04952C9.94191 6.19597 9.94191 6.4334 10.0884 6.57985L12.2097 8.70117L10.0884 10.8225C9.94191 10.9689 9.94191 11.2064 10.0884 11.3528C10.2348 11.4993 10.4722 11.4993 10.6187 11.3528L13.0052 8.96634ZM5.08594 9.07617L12.74 9.07617L12.74 8.32617L5.08594 8.32617L5.08594 9.07617Z" fill="#071F27"/>
</svg>
