<svg width="32" height="18" viewBox="0 0 32 18" fill="none" xmlns="http://www.w3.org/2000/svg">
<g clip-path="url(#clip0)">
<path d="M31.2618 8.99999C31.2618 14.0066 27.0934 18.0986 21.8828 18.0986C16.7219 18.0986 12.5039 14.0066 12.5039 8.99999C12.5039 3.99334 16.6723 -0.0986328 21.8332 -0.0986328C27.0934 -0.0986328 31.2618 3.99334 31.2618 8.99999Z" fill="#FFB600"/>
<path d="M21.8828 -0.0986328C27.0437 -0.0986328 31.2618 3.99334 31.2618 8.99999C31.2618 14.0066 27.0934 18.0986 21.8828 18.0986C16.7219 18.0986 12.5039 14.0066 12.5039 8.99999" fill="#F7981D"/>
<path d="M21.8828 -0.0986328C27.0437 -0.0986328 31.2618 3.99334 31.2618 8.99999C31.2618 14.0066 27.0933 18.0986 21.8828 18.0986" fill="#FF8500"/>
<path d="M9.2797 -0.0986328C4.16842 -0.0504919 0 3.99334 0 8.99999C0 14.0066 4.16842 18.0986 9.37895 18.0986C11.8105 18.0986 13.994 17.1839 15.6812 15.7397C16.0286 15.4509 16.3263 15.1139 16.6241 14.7769H14.6887C14.4406 14.4881 14.1925 14.1511 13.994 13.8622H17.3188C17.5173 13.5734 17.7158 13.2364 17.8647 12.8994H13.4481C13.2992 12.6106 13.1504 12.2736 13.0511 11.9366H18.212C18.5098 11.0219 18.7083 10.0591 18.7083 9.04813C18.7083 8.37416 18.609 7.74833 18.5098 7.1225H12.7534C12.803 6.78551 12.9023 6.49667 13.0015 6.15968H18.1624C18.0632 5.8227 17.9143 5.48571 17.7654 5.19686H13.3985C13.5474 4.85988 13.7459 4.57103 13.9444 4.23405H17.2692C17.0707 3.89706 16.8226 3.56007 16.5248 3.27123H14.6887C14.9865 2.93424 15.2842 2.6454 15.6316 2.35655C13.994 0.864185 11.7609 -0.00235114 9.32932 -0.00235114C9.32932 -0.0986329 9.32932 -0.0986328 9.2797 -0.0986328Z" fill="#FF5050"/>
<path d="M0 8.99942C0 14.0061 4.16842 18.098 9.37895 18.098C11.8105 18.098 13.994 17.1834 15.6812 15.7391C16.0286 15.4503 16.3263 15.1133 16.6241 14.7763H14.6887C14.4406 14.4875 14.1925 14.1505 13.994 13.8616H17.3188C17.5173 13.5728 17.7158 13.2358 17.8647 12.8988H13.4481C13.2992 12.61 13.1504 12.273 13.0511 11.936H18.212C18.5098 11.0213 18.7083 10.0585 18.7083 9.04756C18.7083 8.37359 18.609 7.74776 18.5098 7.12192H12.7534C12.803 6.78494 12.9023 6.49609 13.0015 6.15911H18.1624C18.0632 5.82212 17.9143 5.48513 17.7654 5.19629H13.3985C13.5474 4.8593 13.7459 4.57046 13.9444 4.23347H17.2692C17.0707 3.89648 16.8226 3.5595 16.5248 3.27065H14.6887C14.9865 2.93367 15.2842 2.64482 15.6316 2.35597C13.994 0.863607 11.7609 -0.00292969 9.32932 -0.00292969H9.2797" fill="#E52836"/>
<path d="M9.3805 18.099C11.8121 18.099 13.9955 17.1844 15.6828 15.7401C16.0301 15.4513 16.3279 15.1143 16.6256 14.7773H14.6903C14.4422 14.4885 14.194 14.1515 13.9955 13.8626H17.3203C17.5188 13.5738 17.7173 13.2368 17.8662 12.8998H13.4497C13.3008 12.611 13.1519 12.274 13.0527 11.937H18.2136C18.5113 11.0223 18.7098 10.0595 18.7098 9.04854C18.7098 8.37456 18.6106 7.74873 18.5113 7.1229H12.7549C12.8046 6.78591 12.9038 6.49707 13.0031 6.16008H18.164C18.0647 5.8231 17.9158 5.48611 17.767 5.19726H13.4C13.5489 4.86028 13.7474 4.57143 13.9459 4.23445H17.2707C17.0722 3.89746 16.8241 3.56047 16.5264 3.27163H14.6903C14.988 2.93464 15.2858 2.6458 15.6331 2.35695C13.9955 0.864583 11.7625 -0.00195312 9.33087 -0.00195312H9.28125" fill="#CB2026"/>
<path d="M12.7047 11.3106L12.8536 10.4922C12.804 10.4922 12.7047 10.5404 12.6055 10.5404C12.2581 10.5404 12.2085 10.3478 12.2581 10.2515L12.5558 8.56659H13.1017L13.2506 7.65191H12.7543L12.8536 7.07422H11.8611C11.8611 7.07422 11.2656 10.2515 11.2656 10.6366C11.2656 11.2143 11.613 11.455 12.0596 11.455C12.3574 11.455 12.6055 11.3588 12.7047 11.3106Z" fill="white"/>
<path d="M13.0508 9.77009C13.0508 11.118 13.9936 11.455 14.7876 11.455C15.532 11.455 15.8297 11.3106 15.8297 11.3106L16.0282 10.3959C16.0282 10.3959 15.4824 10.6366 14.9861 10.6366C13.8944 10.6366 14.0929 9.86637 14.0929 9.86637H16.1275C16.1275 9.86637 16.2763 9.24054 16.2763 8.99984C16.2763 8.374 15.929 7.60375 14.8372 7.60375C13.7951 7.50747 13.0508 8.56657 13.0508 9.77009ZM14.7876 8.374C15.3335 8.374 15.2342 8.99984 15.2342 9.04798H14.1425C14.1425 8.99984 14.2418 8.374 14.7876 8.374Z" fill="white"/>
<path d="M21.0926 11.3103L21.2911 10.2512C21.2911 10.2512 20.7949 10.4919 20.4475 10.4919C19.7528 10.4919 19.455 9.96235 19.455 9.38465C19.455 8.22927 20.0505 7.60344 20.7452 7.60344C21.2415 7.60344 21.6385 7.89229 21.6385 7.89229L21.7873 6.88133C21.7873 6.88133 21.1919 6.64062 20.646 6.64062C19.5046 6.64062 18.3633 7.60344 18.3633 9.4328C18.3633 10.6363 18.9588 11.4547 20.1497 11.4547C20.5467 11.4547 21.0926 11.3103 21.0926 11.3103Z" fill="white"/>
<path d="M7.24509 7.50684C6.55035 7.50684 6.05411 7.6994 6.05411 7.6994L5.90524 8.51779C5.90524 8.51779 6.35186 8.32523 6.99697 8.32523C7.34434 8.32523 7.64208 8.37337 7.64208 8.66222C7.64208 8.85478 7.59246 8.90292 7.59246 8.90292C7.59246 8.90292 7.29471 8.90292 7.14584 8.90292C6.30223 8.90292 5.35938 9.23991 5.35938 10.3471C5.35938 11.2137 5.95486 11.4062 6.30223 11.4062C6.99697 11.4062 7.29471 10.973 7.34434 10.973L7.29471 11.3581H8.18794L8.58494 8.71036C8.58494 7.55498 7.59246 7.50684 7.24509 7.50684ZM7.44358 9.67317C7.44358 9.8176 7.34434 10.5878 6.74885 10.5878C6.4511 10.5878 6.35186 10.3471 6.35186 10.2027C6.35186 9.96202 6.50073 9.62503 7.24509 9.62503C7.39396 9.67317 7.44358 9.67317 7.44358 9.67317Z" fill="white"/>
<path d="M9.52807 11.4065C9.77619 11.4065 11.0168 11.4547 11.0168 10.1549C11.0168 8.95135 9.82582 9.19206 9.82582 8.71065C9.82582 8.46994 10.0243 8.37366 10.3717 8.37366C10.5206 8.37366 11.0664 8.4218 11.0664 8.4218L11.2153 7.55527C11.2153 7.55527 10.8679 7.45898 10.2724 7.45898C9.52807 7.45898 8.78371 7.74783 8.78371 8.71065C8.78371 9.81789 10.0243 9.72161 10.0243 10.1549C10.0243 10.4437 9.67694 10.4919 9.42882 10.4919C8.98221 10.4919 8.53559 10.3474 8.53559 10.3474L8.38672 11.214C8.43634 11.3103 8.68446 11.4065 9.52807 11.4065Z" fill="white"/>
<path d="M29.3286 6.7373L29.1301 8.03711C29.1301 8.03711 28.7331 7.5557 28.1872 7.5557C27.294 7.5557 26.5 8.6148 26.5 9.86646C26.5 10.6367 26.897 11.4551 27.7406 11.4551C28.3361 11.4551 28.6835 11.07 28.6835 11.07L28.6338 11.407H29.6263L30.3707 6.78545L29.3286 6.7373ZM28.882 9.28877C28.882 9.81832 28.6338 10.4923 28.088 10.4923C27.7406 10.4923 27.5421 10.2034 27.5421 9.72204C27.5421 8.95179 27.8895 8.47038 28.3361 8.47038C28.6835 8.47038 28.882 8.71108 28.882 9.28877Z" fill="white"/>
<path d="M1.83739 11.3588L2.43288 7.89269L2.53213 11.3588H3.22686L4.51709 7.89269L3.97122 11.3588H5.01333L5.80731 6.7373H4.16972L3.17724 9.57762L3.12761 6.7373H1.68852L0.894531 11.3588H1.83739Z" fill="white"/>
<path d="M17.2206 11.3585C17.5184 9.76986 17.568 8.47005 18.2627 8.71076C18.362 8.08492 18.5109 7.84422 18.6101 7.60352C18.6101 7.60352 18.5605 7.60352 18.4116 7.60352C17.965 7.60352 17.6176 8.18121 17.6176 8.18121L17.7169 7.65166H16.774L16.1289 11.4066H17.2206V11.3585Z" fill="white"/>
<path d="M23.374 7.50684C22.6793 7.50684 22.183 7.6994 22.183 7.6994L22.0341 8.51779C22.0341 8.51779 22.4808 8.32523 23.1259 8.32523C23.4732 8.32523 23.771 8.37337 23.771 8.66222C23.771 8.85478 23.7214 8.90292 23.7214 8.90292C23.7214 8.90292 23.4236 8.90292 23.2747 8.90292C22.4311 8.90292 21.4883 9.23991 21.4883 10.3471C21.4883 11.2137 22.0838 11.4062 22.4311 11.4062C23.1259 11.4062 23.4236 10.973 23.4732 10.973L23.4236 11.3581H24.3169L24.7138 8.71036C24.7635 7.55498 23.7214 7.50684 23.374 7.50684ZM23.6221 9.67317C23.6221 9.8176 23.5229 10.5878 22.9274 10.5878C22.6296 10.5878 22.5304 10.3471 22.5304 10.2027C22.5304 9.96202 22.6793 9.62503 23.4236 9.62503C23.5725 9.67317 23.5725 9.67317 23.6221 9.67317Z" fill="white"/>
<path d="M25.5566 11.3585C25.8543 9.76986 25.9039 8.47005 26.5987 8.71076C26.6979 8.08492 26.8468 7.84422 26.9461 7.60352C26.9461 7.60352 26.8964 7.60352 26.7476 7.60352C26.3009 7.60352 25.9536 8.18121 25.9536 8.18121L26.0528 7.65166H25.11L24.4648 11.4066H25.5566V11.3585Z" fill="white"/>
<path d="M11.168 10.6366C11.168 11.2143 11.5153 11.455 11.962 11.455C12.3093 11.455 12.6071 11.3588 12.7063 11.3106L12.8552 10.4922C12.8056 10.4922 12.7063 10.5404 12.6071 10.5404C12.2597 10.5404 12.2101 10.3478 12.2597 10.2515L12.5574 8.56659H13.1033L13.2522 7.65191H12.7559L12.8552 7.07422" fill="#DCE5E5"/>
<path d="M13.5469 9.77009C13.5469 11.118 13.9935 11.455 14.7875 11.455C15.5318 11.455 15.8296 11.3106 15.8296 11.3106L16.0281 10.3959C16.0281 10.3959 15.4822 10.6366 14.986 10.6366C13.8942 10.6366 14.0927 9.86637 14.0927 9.86637H16.1273C16.1273 9.86637 16.2762 9.24054 16.2762 8.99984C16.2762 8.374 15.9288 7.60375 14.8371 7.60375C13.795 7.50747 13.5469 8.56657 13.5469 9.77009ZM14.7875 8.374C15.3333 8.374 15.4326 8.99984 15.4326 9.04798H14.1424C14.1424 8.99984 14.2416 8.374 14.7875 8.374Z" fill="#DCE5E5"/>
<path d="M21.0925 11.3103L21.291 10.2512C21.291 10.2512 20.7947 10.4919 20.4473 10.4919C19.7526 10.4919 19.4549 9.96235 19.4549 9.38465C19.4549 8.22927 20.0504 7.60344 20.7451 7.60344C21.2413 7.60344 21.6383 7.89229 21.6383 7.89229L21.7872 6.88133C21.7872 6.88133 21.1917 6.64062 20.6458 6.64062C19.5045 6.64062 18.8594 7.60344 18.8594 9.4328C18.8594 10.6363 18.9586 11.4547 20.1496 11.4547C20.5466 11.4547 21.0925 11.3103 21.0925 11.3103Z" fill="#DCE5E5"/>
<path d="M5.90524 8.56633C5.90524 8.56633 6.35186 8.37377 6.99697 8.37377C7.34434 8.37377 7.64208 8.42191 7.64208 8.71076C7.64208 8.90332 7.59246 8.95146 7.59246 8.95146C7.59246 8.95146 7.29471 8.95146 7.14584 8.95146C6.30223 8.95146 5.35938 9.28845 5.35938 10.3957C5.35938 11.2622 5.95486 11.4548 6.30223 11.4548C6.99697 11.4548 7.29471 11.0215 7.34434 11.0215L7.29471 11.4066H8.18794L8.58494 8.7589C8.58494 7.65166 7.59246 7.60352 7.19546 7.60352L5.90524 8.56633ZM7.93982 9.67357C7.93982 9.818 7.34434 10.5882 6.74885 10.5882C6.4511 10.5882 6.35186 10.3475 6.35186 10.2031C6.35186 9.96242 6.50073 9.62543 7.24509 9.62543C7.39396 9.67357 7.93982 9.67357 7.93982 9.67357Z" fill="#DCE5E5"/>
<path d="M8.4375 11.3103C8.4375 11.3103 8.73524 11.4065 9.57885 11.4065C9.82697 11.4065 11.0676 11.4547 11.0676 10.1549C11.0676 8.95135 9.8766 9.19206 9.8766 8.71065C9.8766 8.46994 10.0751 8.37366 10.4225 8.37366C10.5713 8.37366 11.1172 8.4218 11.1172 8.4218L11.2661 7.55527C11.2661 7.55527 10.9187 7.45898 10.3232 7.45898C9.57885 7.45898 9.33073 7.74783 9.33073 8.71065C9.33073 9.81789 10.0751 9.72161 10.0751 10.1549C10.0751 10.4437 9.72773 10.4919 9.47961 10.4919" fill="#DCE5E5"/>
<path d="M29.1296 8.03682C29.1296 8.03682 28.7326 7.55541 28.1868 7.55541C27.2935 7.55541 26.9958 8.61451 26.9958 9.86617C26.9958 10.6364 26.8965 11.4548 27.7402 11.4548C28.3356 11.4548 28.683 11.0697 28.683 11.0697L28.6334 11.4067H29.6259L30.3702 6.78516L29.1296 8.03682ZM29.08 9.28848C29.08 9.81803 28.6334 10.492 28.0875 10.492C27.7401 10.492 27.5417 10.2032 27.5417 9.72175C27.5417 8.95149 27.889 8.47009 28.3356 8.47009C28.683 8.47009 29.08 8.71079 29.08 9.28848Z" fill="#DCE5E5"/>
<path d="M1.83739 11.3588L2.43288 7.89269L2.53213 11.3588H3.22686L4.51709 7.89269L3.97122 11.3588H5.01333L5.80731 6.7373H4.56671L3.17724 9.57762L3.12761 6.7373H2.58175L0.894531 11.3588H1.83739Z" fill="#DCE5E5"/>
<path d="M16.1797 11.3585H17.2218C17.5195 9.76986 17.5692 8.47005 18.2639 8.71076C18.3631 8.08492 18.512 7.84422 18.6113 7.60352C18.6113 7.60352 18.5616 7.60352 18.4128 7.60352C17.9662 7.60352 17.6188 8.18121 17.6188 8.18121L17.718 7.65166" fill="#DCE5E5"/>
<path d="M22.0341 8.56633C22.0341 8.56633 22.4808 8.37377 23.1259 8.37377C23.4732 8.37377 23.771 8.42191 23.771 8.71076C23.771 8.90332 23.7214 8.95146 23.7214 8.95146C23.7214 8.95146 23.4236 8.95146 23.2747 8.95146C22.4311 8.95146 21.4883 9.28845 21.4883 10.3957C21.4883 11.2622 22.0838 11.4548 22.4311 11.4548C23.1259 11.4548 23.4236 11.0215 23.4732 11.0215L23.4236 11.4066H24.3169L24.7138 8.7589C24.7138 7.65166 23.7214 7.60352 23.3244 7.60352L22.0341 8.56633ZM24.0687 9.67357C24.0687 9.818 23.4732 10.5882 22.8778 10.5882C22.58 10.5882 22.4808 10.3475 22.4808 10.2031C22.4808 9.96242 22.6296 9.62543 23.374 9.62543C23.5725 9.67357 24.0687 9.67357 24.0687 9.67357Z" fill="#DCE5E5"/>
<path d="M24.5156 11.3585H25.5577C25.8555 9.76986 25.9051 8.47005 26.5998 8.71076C26.6991 8.08492 26.848 7.84422 26.9472 7.60352C26.9472 7.60352 26.8976 7.60352 26.7487 7.60352C26.3021 7.60352 25.9547 8.18121 25.9547 8.18121L26.054 7.65166" fill="#DCE5E5"/>
</g>
<defs>
<clipPath id="clip0">
<rect width="31.2632" height="18" fill="white"/>
</clipPath>
</defs>
</svg>
