<svg width="19" height="14" viewBox="0 0 19 14" fill="none" xmlns="http://www.w3.org/2000/svg">
<g clip-path="url(#clip0)">
<path d="M1.23805 6.88048C0.753984 6.39525 0.753983 5.60853 1.23805 5.1233C1.72211 4.63807 2.50694 4.63807 2.991 5.1233L8.49311 10.6386C8.97717 11.1239 8.97717 11.9106 8.49311 12.3958C8.00904 12.8811 7.22422 12.8811 6.74015 12.3958L1.23805 6.88048Z" fill="#071F27"/>
<path d="M8.90426 12.3911C8.41761 12.8789 7.62859 12.8789 7.14194 12.3911C6.65529 11.9033 6.65529 11.1124 7.14194 10.6246L16.1392 1.60561C16.6259 1.11779 17.4149 1.11779 17.9016 1.60561C18.3882 2.09344 18.3882 2.88435 17.9016 3.37218L8.90426 12.3911Z" fill="#071F27"/>
</g>
<defs>
<clipPath id="clip0">
<rect width="18" height="12.96" fill="white" transform="translate(0.570312 0.52002)"/>
</clipPath>
</defs>
</svg>
