<svg width="13" height="12" viewBox="0 0 13 12" fill="none" xmlns="http://www.w3.org/2000/svg">
<path d="M0.902355 1.93579C0.459632 1.49307 0.459632 0.775275 0.902355 0.332551C1.34508 -0.110172 2.06288 -0.110172 2.5056 0.332552L12.238 10.0649C12.6807 10.5076 12.6807 11.2254 12.238 11.6682C11.7952 12.1109 11.0774 12.1109 10.6347 11.6682L0.902355 1.93579Z" fill="#071F27"/>
<path d="M2.50591 11.6676C2.06318 12.1104 1.34539 12.1104 0.902665 11.6676C0.459941 11.2249 0.459942 10.5071 0.902665 10.0644L10.635 0.332043C11.0778 -0.110681 11.7955 -0.110681 12.2383 0.332043C12.681 0.774766 12.681 1.49256 12.2383 1.93529L2.50591 11.6676Z" fill="#071F27"/>
</svg>
