<svg width="14" height="14" viewBox="0 0 14 14" fill="none" xmlns="http://www.w3.org/2000/svg">
<path d="M11.9486 2.05136C9.21375 -0.683569 4.78669 -0.684007 2.05137 2.05136C-0.683586 4.7863 -0.683996 9.2133 2.05137 11.9486C4.78625 14.6836 9.21331 14.684 11.9486 11.9486C14.6836 9.21371 14.684 4.78671 11.9486 2.05136ZM11.6561 10.951C11.3291 10.6586 10.9794 10.3999 10.6107 10.1769C10.8544 9.33513 10.9987 8.40885 11.0329 7.44599H13.0904C12.9974 8.74384 12.4987 9.96131 11.6561 10.951ZM0.909555 7.44599H2.96711C3.00123 8.40885 3.1456 9.33513 3.38928 10.1769C3.0206 10.3999 2.67083 10.6586 2.34385 10.951C1.50126 9.96131 1.00261 8.74384 0.909555 7.44599ZM2.34388 3.04898C2.67086 3.34137 3.02063 3.60014 3.38931 3.82313C3.14563 4.66488 3.00126 5.59116 2.96713 6.55402H0.909555C1.00261 5.2562 1.50126 4.03873 2.34388 3.04898ZM6.55403 3.91532C5.82668 3.8633 5.12537 3.68415 4.4752 3.38861C4.85333 2.4149 5.55041 1.24705 6.55403 0.957631V3.91532ZM6.55403 4.80895V6.55405H3.85945C3.89033 5.73954 4.00573 4.95741 4.19767 4.24178C4.93652 4.56477 5.73114 4.75766 6.55403 4.80895ZM6.55403 7.44599V9.19109C5.73114 9.24237 4.93652 9.43526 4.19767 9.75826C4.00573 9.04263 3.89033 8.2605 3.85945 7.44599H6.55403ZM6.55403 10.0847V13.0424C5.55046 12.753 4.85338 11.5852 4.4752 10.6114C5.12537 10.3159 5.82668 10.1367 6.55403 10.0847ZM7.44597 10.0847C8.17332 10.1367 8.87464 10.3159 9.52481 10.6114C9.14665 11.5852 8.4496 12.753 7.44597 13.0424V10.0847ZM7.44597 9.19109V7.44599H10.1405C10.1097 8.2605 9.99427 9.04263 9.80234 9.75826C9.06348 9.43526 8.26887 9.24237 7.44597 9.19109ZM7.44597 6.55405V4.80895C8.26887 4.75766 9.06348 4.56477 9.80234 4.24178C9.99427 4.95741 10.1097 5.73954 10.1405 6.55405H7.44597ZM7.44597 3.91532V0.957658C8.4496 1.24707 9.14668 2.41493 9.52481 3.38864C8.87464 3.68415 8.17332 3.8633 7.44597 3.91532ZM9.44918 1.40292C10.0201 1.65291 10.5527 1.99189 11.0301 2.41247C10.8028 2.61285 10.563 2.79454 10.3126 2.95702C10.0903 2.40643 9.80622 1.87137 9.44918 1.40292ZM3.68733 2.95702C3.43693 2.79454 3.19715 2.61285 2.96987 2.41247C3.44731 1.99189 3.97991 1.65291 4.5508 1.40292C4.19376 1.87142 3.9097 2.40649 3.68733 2.95702ZM3.68736 11.043C3.9097 11.5936 4.19381 12.1287 4.55082 12.5971C3.97994 12.3471 3.44734 12.0082 2.96989 11.5876C3.19715 11.3872 3.43695 11.2055 3.68736 11.043ZM10.3126 11.043C10.563 11.2055 10.8028 11.3872 11.0301 11.5875C10.5527 12.0081 10.0201 12.3471 9.44918 12.5971C9.80619 12.1287 10.0903 11.5936 10.3126 11.043ZM11.0329 6.55405C10.9988 5.59119 10.8544 4.66488 10.6107 3.82316C10.9794 3.60016 11.3291 3.3414 11.6562 3.04901C12.4987 4.03873 12.9974 5.2562 13.0904 6.55405H11.0329Z" fill="white"/>
</svg>
