<svg width="8" height="12" viewBox="0 0 8 12" fill="none" xmlns="http://www.w3.org/2000/svg">
<path d="M4.19084 5.2517L4.19085 5.25171C4.47041 4.99388 4.67483 4.79537 4.80713 4.65434C4.92904 4.52007 5.0309 4.36988 5.11283 4.203L5.11394 4.20074L5.11395 4.20075C5.19167 4.04638 5.23274 3.87042 5.23274 3.66801C5.23274 3.29752 5.13784 3.05284 4.98439 2.89429L4.98248 2.89232L4.98249 2.89231C4.83593 2.73751 4.60624 2.64113 4.24949 2.64113C3.93901 2.64113 3.68833 2.72675 3.48342 2.88937C3.45039 2.91558 3.42064 2.94362 3.39391 2.97346C3.36631 3.00428 3.33754 3.03702 3.30768 3.071C3.17897 3.21749 3.03011 3.3869 2.86867 3.5231C2.66473 3.69517 2.40815 3.84409 2.0896 3.84409C1.78122 3.84409 1.4909 3.71511 1.29856 3.50282C1.10218 3.28607 1.00743 2.97867 1.11419 2.65511C1.18765 2.43248 1.28831 2.22586 1.41645 2.03614C1.70766 1.60501 2.10378 1.2816 2.5977 1.06649L2.59855 1.06612L2.59855 1.06612C3.09167 0.853539 3.64346 0.75 4.24949 0.75C4.89484 0.75 5.46332 0.857279 5.947 1.08179C6.4368 1.30249 6.81685 1.63088 7.07602 2.06786C7.33911 2.50363 7.46484 3.01822 7.46484 3.60081C7.46484 4.00887 7.37842 4.39172 7.2038 4.7457C7.041 5.08051 6.83374 5.38674 6.58251 5.66388C6.34396 5.92764 6.03264 6.23157 5.65066 6.575M4.19084 5.2517L5.48274 6.38978M4.19084 5.2517L4.18919 5.25325C3.89032 5.53395 3.65279 5.79844 3.48225 6.04657C3.30693 6.30166 3.18188 6.58757 3.10589 6.90189C3.08461 6.98863 3.06641 7.08038 3.05111 7.17694C2.95286 7.79707 3.47806 8.27285 4.04767 8.27285C4.6376 8.27285 5.04314 7.79466 5.1801 7.30862C5.19188 7.26681 5.20471 7.22675 5.21856 7.18839M4.19084 5.2517L4.9839 7.10215M5.65066 6.575C5.6504 6.57523 5.65014 6.57547 5.64988 6.5757L5.48274 6.38978M5.65066 6.575C5.65088 6.5748 5.65109 6.57461 5.6513 6.57442L5.48274 6.38978M5.65066 6.575C5.44071 6.76682 5.29973 6.97156 5.21856 7.18839M5.48274 6.38978C5.24718 6.60484 5.08089 6.84229 4.9839 7.10215M5.21856 7.18839C5.2187 7.18799 5.21884 7.18759 5.21899 7.18719L4.9839 7.10215M5.21856 7.18839C5.21841 7.18879 5.21826 7.18918 5.21811 7.18958L4.9839 7.10215M4.96849 10.9331L4.9685 10.9331L4.97089 10.9308C5.19824 10.7103 5.31011 10.4289 5.31011 10.1062C5.31011 9.78343 5.19824 9.5021 4.97089 9.28157C4.73858 9.05624 4.43277 8.95564 4.0832 8.95564C3.73364 8.95564 3.42783 9.05624 3.19552 9.28157C2.96816 9.5021 2.8563 9.78343 2.8563 10.1062C2.8563 10.4289 2.96816 10.7103 3.19552 10.9308L3.1955 10.9308L3.19792 10.9331C3.43048 11.1527 3.73545 11.25 4.0832 11.25C4.43096 11.25 4.73592 11.1527 4.96849 10.9331Z" stroke="#071F27" stroke-width="0.5"/>
</svg>
