<svg width="34" height="35" viewBox="0 0 34 35" fill="none" xmlns="http://www.w3.org/2000/svg">
<path d="M22.6094 15.6162C22.6094 19.7583 19.2515 23.1162 15.1094 23.1162C10.9672 23.1162 7.60938 19.7583 7.60938 15.6162C7.60938 11.4741 10.9672 8.11621 15.1094 8.11621C19.2515 8.11621 22.6094 11.4741 22.6094 15.6162ZM10.4223 15.6162C10.4223 18.2048 12.5208 20.3032 15.1094 20.3032C17.6979 20.3032 19.7964 18.2048 19.7964 15.6162C19.7964 13.0276 17.6979 10.9292 15.1094 10.9292C12.5208 10.9292 10.4223 13.0276 10.4223 15.6162Z" fill="#2E2E2E"/>
<path d="M23.7577 26.9481C24.3079 27.4983 25.1999 27.4983 25.7502 26.9481C26.3004 26.3979 26.3004 25.5058 25.7502 24.9556L20.8176 20.0231L18.8251 22.0156L23.7577 26.9481Z" fill="#2E2E2E"/>
</svg>
