<svg width="17" height="16" viewBox="0 0 17 16" fill="none" xmlns="http://www.w3.org/2000/svg">
<path d="M9.25011 16H8.24595C7.4338 16 6.77302 15.3393 6.77302 14.5271V14.1874C6.42773 14.0771 6.09227 13.9378 5.76998 13.771L5.52923 14.0118C4.94614 14.5956 4.01211 14.5785 3.44595 14.0116L2.73623 13.3019C2.16908 12.7353 2.15277 11.8016 2.73642 11.2186L2.97698 10.978C2.8102 10.6558 2.67098 10.3203 2.56064 9.975H2.22095C1.40883 9.975 0.748047 9.31425 0.748047 8.50209V7.49791C0.748047 6.68575 1.40883 6.025 2.22098 6.025H2.56067C2.67102 5.67969 2.81023 5.34425 2.97702 5.02197L2.73627 4.78125C2.15295 4.19856 2.16905 3.26475 2.73645 2.69797L3.44623 1.98822C4.0137 1.41997 4.94752 1.40578 5.52948 1.98841L5.77002 2.22894C6.0923 2.06219 6.42777 1.92294 6.77305 1.81259V1.47291C6.77305 0.66075 7.4338 0 8.24598 0H9.25014C10.0623 0 10.723 0.66075 10.723 1.47291V1.81263C11.0683 1.92294 11.4038 2.06219 11.7261 2.22897L11.9668 1.98822C12.5499 1.40441 13.484 1.42153 14.0501 1.98844L14.7598 2.69813C15.327 3.26466 15.3433 4.19838 14.7596 4.78141L14.5191 5.02197C14.6859 5.34425 14.8251 5.67966 14.9354 6.025H15.2751C16.0873 6.025 16.748 6.68575 16.748 7.49791V8.50209C16.748 9.31425 16.0873 9.975 15.2751 9.975H14.9354C14.8251 10.3203 14.6859 10.6558 14.5191 10.978L14.7598 11.2188C15.3431 11.8015 15.327 12.7353 14.7596 13.3021L14.0499 14.0118C13.4824 14.5801 12.5486 14.5943 11.9666 14.0116L11.7261 13.7711C11.4038 13.9378 11.0683 14.0771 10.723 14.1874V14.5272C10.723 15.3392 10.0623 16 9.25011 16ZM5.9267 12.7866C6.37442 13.0513 6.8563 13.2514 7.35892 13.3811C7.56592 13.4345 7.71055 13.6212 7.71055 13.835V14.5271C7.71055 14.8223 7.95077 15.0625 8.24598 15.0625H9.25014C9.54536 15.0625 9.78558 14.8223 9.78558 14.5271V13.835C9.78558 13.6212 9.9302 13.4345 10.1372 13.3811C10.6398 13.2514 11.1217 13.0513 11.5694 12.7866C11.7536 12.6776 11.9882 12.7073 12.1395 12.8586L12.6298 13.3489C12.8411 13.5605 13.1806 13.5556 13.3868 13.3491L14.097 12.6389C14.3027 12.4335 14.3095 12.094 14.0972 11.8819L13.6067 11.3914C13.4554 11.2401 13.4258 11.0055 13.5347 10.8213C13.7995 10.3737 13.9995 9.89178 14.1292 9.38913C14.1826 9.18213 14.3693 9.03753 14.583 9.03753H15.2751C15.5704 9.03753 15.8106 8.79734 15.8106 8.50213V7.49794C15.8106 7.20272 15.5704 6.96253 15.2751 6.96253H14.583C14.3693 6.96253 14.1826 6.81791 14.1292 6.61094C13.9995 6.10828 13.7994 5.62641 13.5347 5.17872C13.4258 4.99453 13.4554 4.75997 13.6067 4.60866L14.097 4.11837C14.3089 3.90669 14.3034 3.56731 14.0972 3.36134L13.387 2.65119C13.1812 2.44506 12.8417 2.43903 12.63 2.651L12.1395 3.14147C11.9882 3.29281 11.7536 3.32244 11.5695 3.2135C11.1217 2.94872 10.6399 2.74869 10.1372 2.61897C9.93023 2.56556 9.78561 2.37887 9.78561 2.16509V1.47291C9.78561 1.17769 9.54539 0.9375 9.25017 0.9375H8.24602C7.9508 0.9375 7.71058 1.17769 7.71058 1.47291V2.16503C7.71058 2.37881 7.56595 2.5655 7.35895 2.61891C6.85633 2.74862 6.37445 2.94866 5.92673 3.21344C5.74248 3.32234 5.50795 3.29272 5.35664 3.14141L4.86639 2.65112C4.65502 2.4395 4.31555 2.44441 4.10939 2.65091L3.39917 3.36109C3.19348 3.56653 3.18661 3.906 3.39898 4.11812L3.88945 4.60859C4.04077 4.75991 4.07039 4.99447 3.96148 5.17866C3.6967 5.62634 3.4967 6.10822 3.36698 6.61088C3.31355 6.81787 3.12686 6.96247 2.91311 6.96247H2.22098C1.92577 6.9625 1.68555 7.20269 1.68555 7.49791V8.50209C1.68555 8.79731 1.92577 9.0375 2.22098 9.0375H2.91308C3.12686 9.0375 3.31352 9.18212 3.36695 9.38909C3.49667 9.89175 3.6967 10.3736 3.96145 10.8213C4.07036 11.0055 4.04073 11.2401 3.88942 11.3914L3.39914 11.8817C3.1872 12.0933 3.19273 12.4327 3.39895 12.6387L4.10911 13.3488C4.31495 13.555 4.65445 13.561 4.86614 13.349L5.35658 12.8586C5.46808 12.7471 5.70005 12.6525 5.9267 12.7866Z" fill="#FFFFFF"/>
<path d="M5.9267 12.7866C6.37442 13.0513 6.8563 13.2514 7.35892 13.3811C7.56592 13.4345 7.71055 13.6212 7.71055 13.835V14.5271C7.71055 14.8223 7.95077 15.0625 8.24598 15.0625H9.25014C9.54536 15.0625 9.78558 14.8223 9.78558 14.5271V13.835C9.78558 13.6212 9.9302 13.4345 10.1372 13.3811C10.6398 13.2514 11.1217 13.0513 11.5694 12.7866C11.7536 12.6776 11.9882 12.7073 12.1395 12.8586L12.6298 13.3489C12.8411 13.5605 13.1806 13.5556 13.3868 13.3491L14.097 12.6389C14.3027 12.4335 14.3095 12.094 14.0972 11.8819L13.6067 11.3914C13.4554 11.2401 13.4258 11.0055 13.5347 10.8213C13.7995 10.3737 13.9995 9.89178 14.1292 9.38913C14.1826 9.18213 14.3693 9.03753 14.583 9.03753H15.2751C15.5704 9.03753 15.8106 8.79734 15.8106 8.50213V7.49794C15.8106 7.20272 15.5704 6.96253 15.2751 6.96253H14.583C14.3693 6.96253 14.1826 6.81791 14.1292 6.61094C13.9995 6.10828 13.7994 5.62641 13.5347 5.17872C13.4258 4.99453 13.4554 4.75997 13.6067 4.60866L14.097 4.11837C14.3089 3.90669 14.3034 3.56731 14.0972 3.36134L13.387 2.65119C13.1812 2.44506 12.8417 2.43903 12.63 2.651L12.1395 3.14147C11.9882 3.29281 11.7536 3.32244 11.5695 3.2135C11.1217 2.94872 10.6399 2.74869 10.1372 2.61897C9.93023 2.56556 9.78561 2.37887 9.78561 2.16509V1.47291C9.78561 1.17769 9.54539 0.9375 9.25017 0.9375H8.24602C7.9508 0.9375 7.71058 1.17769 7.71058 1.47291V2.16503C7.71058 2.37881 7.56595 2.5655 7.35895 2.61891C6.85633 2.74862 6.37445 2.94866 5.92673 3.21344C5.74248 3.32234 5.50795 3.29272 5.35664 3.14141L4.86639 2.65112C4.65502 2.4395 4.31555 2.44441 4.10939 2.65091L3.39917 3.36109C3.19348 3.56653 3.18661 3.906 3.39898 4.11812L3.88945 4.60859C4.04077 4.75991 4.07039 4.99447 3.96148 5.17866C3.6967 5.62634 3.4967 6.10822 3.36698 6.61088C3.31355 6.81787 3.12686 6.96247 2.91311 6.96247H2.22098C1.92577 6.9625 1.68555 7.20269 1.68555 7.49791V8.50209C1.68555 8.79731 1.92577 9.0375 2.22098 9.0375H2.91308C3.12686 9.0375 3.31352 9.18212 3.36695 9.38909C3.49667 9.89175 3.6967 10.3736 3.96145 10.8213C4.07036 11.0055 4.04073 11.2401 3.88942 11.3914L3.39914 11.8817C3.1872 12.0933 3.19273 12.4327 3.39895 12.6387L4.10911 13.3488C4.31495 13.555 4.65445 13.561 4.86614 13.349L5.35658 12.8586C5.46808 12.7471 5.70005 12.6525 5.9267 12.7866Z" fill="#FFFFFF"/>
<path fill-rule="evenodd" clip-rule="evenodd" d="M8.74883 11.4813C6.82923 11.4813 5.26758 9.91961 5.26758 8.00005C5.26758 6.08049 6.82923 4.5188 8.74883 4.5188C10.6684 4.5188 12.2301 6.08049 12.2301 8.00005C12.2301 9.91961 10.6684 11.4813 8.74883 11.4813ZM6.20508 8.00005C6.20508 6.59742 7.34617 5.4563 8.74883 5.4563C10.1515 5.4563 11.2926 6.59742 11.2926 8.00005C11.2926 9.40268 10.1515 10.5438 8.74883 10.5438C7.3462 10.5438 6.20508 9.40268 6.20508 8.00005Z" fill="#E83567"/>
<path d="M8.74883 5.4563C7.34617 5.4563 6.20508 6.59742 6.20508 8.00005C6.20508 9.40268 7.3462 10.5438 8.74883 10.5438C10.1515 10.5438 11.2926 9.40268 11.2926 8.00005C11.2926 6.59742 10.1515 5.4563 8.74883 5.4563Z" fill="#E83567"/>
</svg>
