<svg width="18" height="18" viewBox="0 0 18 18" fill="none" xmlns="http://www.w3.org/2000/svg">
<path d="M7.32247 1C7.28602 1 7.24592 1.00498 7.20825 1.01369C5.64677 1.37956 4.24204 2.21086 3.14476 3.41798C3.04025 3.53496 2.98922 3.69425 3.01109 3.8523C3.03418 4.0091 3.1241 4.14972 3.25777 4.23061C3.79851 4.56413 3.98322 5.2884 3.66849 5.84592C3.46191 6.21428 3.07671 6.44202 2.66234 6.44202C2.46548 6.44202 2.26984 6.38975 2.09607 6.28895C2.0183 6.24415 1.9296 6.22175 1.84211 6.22175C1.7777 6.22175 1.7133 6.23419 1.65133 6.26033C1.50672 6.31881 1.39736 6.44202 1.35118 6.59633C1.11909 7.37287 1 8.18052 1 8.99938C1 9.81823 1.11909 10.6259 1.35118 11.4037C1.39736 11.5555 1.50672 11.6799 1.65133 11.7397C1.7133 11.7658 1.7777 11.777 1.84211 11.777C1.9296 11.777 2.0183 11.7546 2.09607 11.7086C2.26984 11.6115 2.46548 11.558 2.66234 11.558C3.07671 11.558 3.46191 11.7845 3.66849 12.1528C3.98443 12.7104 3.79851 13.4371 3.25777 13.7681C3.1241 13.849 3.03296 13.9884 3.01109 14.1477C2.988 14.3057 3.03904 14.465 3.14354 14.5833C4.24083 15.7891 5.64677 16.6204 7.20825 16.9863C7.24592 16.995 7.2848 17 7.32247 17C7.43791 17 7.54971 16.9614 7.64206 16.8868C7.76601 16.7884 7.8377 16.6391 7.84013 16.4798C7.84742 15.8315 8.36873 15.3063 8.99939 15.3063C9.63006 15.3063 10.1501 15.8315 10.1611 16.4798C10.1635 16.6391 10.234 16.7884 10.3567 16.8868C10.4491 16.9614 10.5609 17 10.6763 17C10.7152 17 10.7529 16.995 10.7918 16.9863C12.352 16.6204 13.7567 15.7891 14.8552 14.5833C14.9634 14.4663 15.012 14.3057 14.9877 14.1477C14.9658 13.9884 14.8747 13.8503 14.7422 13.7681C14.2003 13.4371 14.0144 12.7104 14.3315 12.1528C14.5369 11.7845 14.9221 11.558 15.3364 11.558C15.5333 11.558 15.7289 11.6115 15.9027 11.7086C15.9805 11.7546 16.0692 11.777 16.1567 11.777C16.2223 11.777 16.2867 11.7646 16.3487 11.7397C16.4933 11.6799 16.6051 11.5567 16.65 11.4037C16.8821 10.6259 17 9.81823 17 8.99938C17 8.18052 16.8821 7.37411 16.65 6.59633C16.6051 6.44326 16.4933 6.31881 16.3487 6.26033C16.2867 6.23419 16.2223 6.22175 16.1567 6.22175C16.0692 6.22175 15.9805 6.24415 15.9027 6.29019C15.7289 6.38975 15.5345 6.44202 15.3364 6.44202C14.9221 6.44202 14.5369 6.21428 14.3315 5.84592C14.0156 5.2884 14.2003 4.56413 14.7422 4.23061C14.8759 4.14972 14.967 4.0091 14.9877 3.8523C15.012 3.69425 14.9622 3.53496 14.8552 3.41798C13.758 2.21086 12.352 1.3808 10.7918 1.01369C10.7517 1.00498 10.7152 1.00124 10.6763 1.00124C10.5609 1.00124 10.4491 1.03982 10.3567 1.11449C10.2328 1.2128 10.1635 1.36338 10.1611 1.52267C10.1501 2.16855 9.63128 2.69495 8.99939 2.69495C8.36751 2.69495 7.84742 2.16855 7.84013 1.52267C7.8377 1.36338 7.76479 1.21156 7.64206 1.11449C7.54971 1.03982 7.43791 1 7.32247 1Z" stroke="#071F27" stroke-width="0.75" stroke-miterlimit="10" stroke-linecap="round" stroke-linejoin="round"/>
<path d="M8.99719 13.0279C11.1703 13.0279 12.9319 11.2238 12.9319 8.99831C12.9319 6.77284 11.1703 4.96875 8.99719 4.96875C6.82412 4.96875 5.0625 6.77284 5.0625 8.99831C5.0625 11.2238 6.82412 13.0279 8.99719 13.0279Z" stroke="#071F27" stroke-width="0.75" stroke-miterlimit="10" stroke-linecap="round" stroke-linejoin="round"/>
</svg>
