<svg width="15" height="16" viewBox="0 0 15 16" fill="none" xmlns="http://www.w3.org/2000/svg">
<path d="M12.2181 11.3173C11.6077 11.3173 11.0575 11.5542 10.6398 11.9358L4.91692 8.5984C4.96109 8.41768 4.98921 8.22894 4.98921 8.03616C4.98921 7.84339 4.96109 7.65465 4.91692 7.47393L10.5796 4.16868C11.0093 4.5703 11.5836 4.81929 12.2181 4.81929C13.5475 4.81929 14.6278 3.73898 14.6278 2.40964C14.6278 1.08031 13.5475 0 12.2181 0C10.8888 0 9.8085 1.08031 9.8085 2.40964C9.8085 2.60242 9.83662 2.79116 9.88079 2.97188L4.21812 6.27709C3.78842 5.87547 3.21409 5.62648 2.57957 5.62648C1.25023 5.62648 0.169922 6.70679 0.169922 8.03613C0.169922 9.36546 1.25023 10.4458 2.57957 10.4458C3.21409 10.4458 3.78842 10.1968 4.21812 9.79517L9.94103 13.1325C9.90086 13.3012 9.87676 13.4779 9.87676 13.6586C9.87676 14.9518 10.925 16 12.2181 16C13.5113 16 14.5595 14.9518 14.5595 13.6586C14.5595 12.3654 13.5113 11.3173 12.2181 11.3173Z" fill="#3D4963"/>
</svg>
