<svg width="21" height="21" viewBox="0 0 21 21" fill="none" xmlns="http://www.w3.org/2000/svg">
<path d="M9.90133 20.1756C9.69432 20.1756 9.52631 20.0076 9.52631 19.8006C9.52631 18.1115 8.52326 16.5534 6.97018 15.8334C6.57416 15.6514 6.29714 15.1914 6.26314 14.6643C6.23314 14.1813 6.41615 13.7683 6.75316 13.5583C7.68021 12.9853 8.23224 12.0062 8.23224 10.9391C8.23224 9.23406 6.84517 7.84699 5.14008 7.84699C5.13108 7.84699 5.12308 7.84699 5.11408 7.84599C3.42199 7.86099 2.04992 9.24206 2.04992 10.9371C2.04992 12.0022 2.60195 12.9813 3.527 13.5563C3.86301 13.7653 4.04702 14.1763 4.01802 14.6583C3.98602 15.1874 3.71001 15.6494 3.31299 15.8344C1.7599 16.5524 0.756852 18.1085 0.756852 19.8016C0.757852 20.0076 0.589843 20.1756 0.382832 20.1756C0.175821 20.1756 0.0078125 20.0076 0.0078125 19.8006C0.0078125 17.8175 1.18187 15.9924 2.99897 15.1534C3.14198 15.0874 3.25598 14.8594 3.27098 14.6133C3.28298 14.4183 3.22898 14.2533 3.13298 14.1933C1.98592 13.4813 1.30088 12.2632 1.30088 10.9371C1.30088 8.81904 3.02397 7.09595 5.14208 7.09595C5.15208 7.09595 5.16208 7.09595 5.17108 7.09695C7.27619 7.11295 8.98428 8.83004 8.98428 10.9391C8.98428 12.2682 8.29825 13.4863 7.15019 14.1963C7.05518 14.2553 7.00118 14.4213 7.01318 14.6173C7.02918 14.8624 7.14319 15.0884 7.28519 15.1534C9.10229 15.9964 10.2763 17.8205 10.2763 19.8006C10.2763 20.0076 10.1083 20.1756 9.90133 20.1756Z" fill="#071F27"/>
<path d="M19.6337 13.2545C19.4267 13.2545 19.2587 13.0865 19.2587 12.8794C19.2587 11.1884 18.2556 9.63027 16.7025 8.91324C16.3065 8.73023 16.0295 8.2692 15.9965 7.74018C15.9675 7.25715 16.1505 6.84413 16.4875 6.63512C17.4146 6.06109 17.9666 5.08204 17.9666 4.01598C17.9666 2.32089 16.5915 0.939821 14.8965 0.92582C14.8885 0.92582 14.8795 0.92682 14.8715 0.92682C13.1674 0.92682 11.7813 2.31289 11.7813 4.01698C11.7813 4.10299 11.7843 4.18699 11.7943 4.272C11.8183 4.47801 11.6723 4.66402 11.4663 4.68902C11.2613 4.71002 11.0733 4.56601 11.0503 4.36C11.0363 4.24599 11.0312 4.13199 11.0312 4.01698C11.0312 1.90887 12.7383 0.191782 14.8434 0.176781C14.8524 0.176781 14.8625 0.175781 14.8715 0.175781C16.9916 0.175781 18.7177 1.89887 18.7177 4.01598C18.7177 5.34405 18.0316 6.56111 16.8836 7.27315C16.7876 7.33316 16.7345 7.49816 16.7455 7.69517C16.7605 7.94119 16.8746 8.1672 17.0166 8.2332C18.8347 9.07224 20.0087 10.8963 20.0087 12.8794C20.0087 13.0865 19.8407 13.2545 19.6337 13.2545Z" fill="#071F27"/>
<path d="M14.7665 16.7144C14.5595 16.7144 14.3915 16.5464 14.3915 16.3394C14.3915 14.6483 13.3884 13.0912 11.8354 12.3732C11.4393 12.1892 11.1623 11.7292 11.1293 11.2011C11.1003 10.7191 11.2833 10.3051 11.6203 10.0961C12.5474 9.52305 13.0994 8.544 13.0994 7.47694C13.0994 5.78085 11.7254 4.39878 10.0303 4.38578C10.0213 4.38578 10.0133 4.38678 10.0043 4.38678C8.30017 4.38678 6.9141 5.77385 6.9141 7.47794C6.9141 7.56495 6.9171 7.65195 6.9261 7.73796C6.9471 7.94397 6.7961 8.12798 6.59008 8.14798C6.38407 8.17298 6.20006 8.01797 6.18006 7.81196C6.16906 7.70195 6.16406 7.58995 6.16406 7.47794C6.16406 5.36883 7.87215 3.65174 9.97726 3.63674C9.98626 3.63674 9.99626 3.63574 10.0053 3.63574C12.1244 3.63574 13.8495 5.35883 13.8495 7.47694C13.8495 8.80601 13.1634 10.0231 12.0154 10.7331C11.9194 10.7931 11.8654 10.9581 11.8774 11.1551C11.8924 11.4001 12.0064 11.6262 12.1484 11.6912C13.9655 12.5322 15.1395 14.3563 15.1395 16.3384C15.1415 16.5464 14.9735 16.7144 14.7665 16.7144Z" fill="#071F27"/>
</svg>
