<svg width="19" height="18" viewBox="0 0 19 18" fill="none" xmlns="http://www.w3.org/2000/svg">
<path fill-rule="evenodd" clip-rule="evenodd" d="M16.1602 0.00345837C16.0614 0.00656182 15.9638 0.0156651 15.8644 0.027603C15.0689 0.123893 14.2338 0.486156 13.4736 1.07209C13.4274 1.10728 13.3886 1.15125 13.3594 1.20149C13.3302 1.25172 13.3113 1.30721 13.3036 1.36479C13.2959 1.42237 13.2996 1.48091 13.3146 1.53704C13.3296 1.59316 13.3555 1.64578 13.3909 1.69187C13.4262 1.73796 13.4703 1.77662 13.5207 1.80562C13.571 1.83462 13.6266 1.85341 13.6842 1.86089C13.7418 1.86837 13.8003 1.86441 13.8564 1.84922C13.9125 1.83404 13.965 1.80794 14.011 1.77241C14.6621 1.27054 15.3651 0.975872 15.967 0.903023C16.569 0.830175 17.0452 0.966942 17.3617 1.28339C17.7219 1.64366 17.851 2.21745 17.6998 2.93158C17.5485 3.64568 17.1059 4.46121 16.4078 5.15936C15.7096 5.85749 14.8941 6.30011 14.18 6.45133C13.4659 6.60257 12.8921 6.47355 12.5318 6.11324C12.4307 6.01213 12.3529 5.8944 12.2903 5.76308C12.2397 5.65767 12.1494 5.57664 12.0391 5.53776C11.9288 5.49888 11.8076 5.50533 11.7021 5.55569C11.5966 5.60606 11.5153 5.69622 11.4762 5.80641C11.4371 5.9166 11.4433 6.03781 11.4934 6.14345C11.5968 6.36034 11.736 6.56116 11.91 6.73508C12.2076 7.03274 12.5751 7.21434 12.9786 7.30864C12.9591 7.33126 12.9398 7.35343 12.9182 7.37505C12.4572 7.83598 11.7249 7.836 11.264 7.37505C10.803 6.91411 10.803 6.18178 11.264 5.72082C11.7249 5.25987 12.4572 5.25985 12.9182 5.72082C12.9654 5.76807 13.0079 5.81977 13.045 5.87174C13.0786 5.91922 13.1212 5.9596 13.1704 5.99056C13.2196 6.02152 13.2745 6.04244 13.3318 6.05213C13.3891 6.06183 13.4478 6.06011 13.5045 6.04706C13.5612 6.03401 13.6147 6.00989 13.662 5.97609C13.7093 5.94229 13.7495 5.89948 13.7802 5.85011C13.8109 5.80074 13.8316 5.74579 13.841 5.68841C13.8505 5.63103 13.8485 5.57235 13.8351 5.51575C13.8218 5.45915 13.7974 5.40574 13.7634 5.35858C13.6981 5.26701 13.6276 5.18052 13.5461 5.09896C13.1472 4.70005 12.6173 4.49523 12.0911 4.49525C11.5649 4.49525 11.041 4.70005 10.6421 5.09896C9.8443 5.8968 9.84429 7.19906 10.6421 7.99688C11.4399 8.79472 12.7483 8.79472 13.5461 7.99688C13.7327 7.8103 13.8751 7.59803 13.9747 7.36899C14.1049 7.35575 14.2364 7.3363 14.3672 7.30864C14.7858 7.21997 15.2073 7.05476 15.6229 6.83168L15.6169 9.22849L7.84082 17.0046L1.63445 10.7982L9.41053 3.02212H13.3771L15.315 4.96012C15.3547 5.00582 15.4033 5.04286 15.4579 5.06895C15.5125 5.09503 15.5719 5.10959 15.6324 5.11173C15.6929 5.11387 15.7531 5.10353 15.8094 5.08136C15.8657 5.0592 15.9169 5.02569 15.9596 4.9829C16.0024 4.94012 16.0359 4.88898 16.0581 4.83268C16.0803 4.77638 16.0906 4.71612 16.0885 4.65565C16.0863 4.59518 16.0718 4.53579 16.0457 4.48119C16.0196 4.42659 15.9826 4.37795 15.9369 4.33829L13.8721 2.26746C13.8307 2.22668 13.7817 2.19449 13.7278 2.17274C13.6739 2.15098 13.6163 2.1401 13.5582 2.1407H9.22337C9.20929 2.14003 9.19519 2.14003 9.18111 2.1407C9.07852 2.14992 8.9824 2.19476 8.90943 2.26746L0.698662 10.4843C0.61646 10.5669 0.570313 10.6787 0.570312 10.7952C0.570312 10.9117 0.61646 11.0235 0.698662 11.1061L7.53292 17.9404C7.61552 18.0226 7.72731 18.0687 7.84384 18.0687C7.96037 18.0687 8.07216 18.0226 8.15476 17.9404L16.3716 9.7296C16.4123 9.68821 16.4445 9.63916 16.4663 9.58529C16.4881 9.53141 16.499 9.47376 16.4984 9.41565L16.5044 6.2521C16.687 6.10634 16.8639 5.95291 17.0357 5.78119C17.8434 4.97349 18.3694 4.02733 18.5631 3.1127C18.7568 2.19809 18.6027 1.28076 17.9835 0.661539C17.5756 0.253622 17.0376 0.0458175 16.4561 0.00950716V0.00349625C16.3591 -0.00250374 16.2591 0.000354924 16.1602 0.00345837Z" fill="#071F27"/>
</svg>
