<svg width="19" height="19" viewBox="0 0 19 19" fill="none" xmlns="http://www.w3.org/2000/svg">
<g clip-path="url(#clip0)">
<path fill-rule="evenodd" clip-rule="evenodd" d="M16.1602 0.46879C16.0614 0.471894 15.9638 0.480997 15.8644 0.492935C15.0689 0.589225 14.2338 0.951488 13.4736 1.53742C13.4274 1.57261 13.3886 1.61659 13.3594 1.66682C13.3302 1.71705 13.3113 1.77254 13.3036 1.83012C13.2959 1.8877 13.2996 1.94624 13.3146 2.00237C13.3296 2.0585 13.3555 2.11111 13.3909 2.1572C13.4262 2.20329 13.4703 2.24195 13.5207 2.27095C13.571 2.29995 13.6266 2.31874 13.6842 2.32622C13.7418 2.33371 13.8003 2.32974 13.8564 2.31456C13.9125 2.29937 13.965 2.27327 14.011 2.23774C14.6621 1.73587 15.3651 1.4412 15.967 1.36836C16.569 1.29551 17.0452 1.43227 17.3617 1.74872C17.7219 2.10899 17.851 2.68279 17.6998 3.39691C17.5485 4.11101 17.1059 4.92654 16.4078 5.6247C15.7096 6.32283 14.8941 6.76544 14.18 6.91666C13.4659 7.0679 12.8921 6.93888 12.5318 6.57857C12.4307 6.47746 12.3529 6.35973 12.2903 6.22841C12.2397 6.123 12.1494 6.04197 12.0391 6.00309C11.9288 5.96421 11.8076 5.97066 11.7021 6.02102C11.5966 6.07139 11.5153 6.16155 11.4762 6.27174C11.4371 6.38193 11.4433 6.50314 11.4934 6.60878C11.5968 6.82567 11.736 7.02649 11.91 7.20041C12.2076 7.49807 12.5751 7.67967 12.9786 7.77397C12.9591 7.79659 12.9398 7.81876 12.9182 7.84038C12.4572 8.30131 11.7249 8.30133 11.264 7.84038C10.803 7.37944 10.803 6.64711 11.264 6.18615C11.7249 5.7252 12.4572 5.72518 12.9182 6.18615C12.9654 6.2334 13.0079 6.2851 13.045 6.33708C13.0786 6.38455 13.1212 6.42494 13.1704 6.45589C13.2196 6.48685 13.2745 6.50777 13.3318 6.51747C13.3891 6.52716 13.4478 6.52544 13.5045 6.51239C13.5612 6.49934 13.6147 6.47522 13.662 6.44142C13.7093 6.40762 13.7495 6.36481 13.7802 6.31544C13.8109 6.26608 13.8316 6.21112 13.841 6.15374C13.8505 6.09636 13.8485 6.03768 13.8351 5.98108C13.8218 5.92448 13.7974 5.87107 13.7634 5.82391C13.6981 5.73234 13.6276 5.64586 13.5461 5.5643C13.1472 5.16538 12.6173 4.96056 12.0911 4.96058C11.5649 4.96058 11.041 5.16538 10.6421 5.5643C9.8443 6.36213 9.84429 7.6644 10.6421 8.46221C11.4399 9.26005 12.7483 9.26005 13.5461 8.46221C13.7327 8.27563 13.8751 8.06336 13.9747 7.83432C14.1049 7.82108 14.2364 7.80164 14.3672 7.77397C14.7858 7.6853 15.2073 7.52009 15.6229 7.29702L15.6169 9.69383L7.84082 17.4699L1.63445 11.2636L9.41053 3.48745H13.3771L15.315 5.42545C15.3547 5.47115 15.4033 5.5082 15.4579 5.53428C15.5125 5.56036 15.5719 5.57493 15.6324 5.57706C15.6929 5.5792 15.7531 5.56886 15.8094 5.54669C15.8657 5.52453 15.9169 5.49102 15.9596 5.44823C16.0024 5.40545 16.0359 5.35431 16.0581 5.29801C16.0803 5.24171 16.0906 5.18145 16.0885 5.12098C16.0863 5.06051 16.0718 5.00112 16.0457 4.94652C16.0196 4.89193 15.9826 4.84329 15.9369 4.80363L13.8721 2.73279C13.8307 2.69202 13.7817 2.65983 13.7278 2.63807C13.6739 2.61632 13.6163 2.60543 13.5582 2.60603H9.22337C9.20929 2.60536 9.19519 2.60536 9.18111 2.60603C9.07852 2.61525 8.9824 2.66009 8.90943 2.73279L0.698662 10.9496C0.61646 11.0322 0.570313 11.144 0.570312 11.2605C0.570312 11.3771 0.61646 11.4889 0.698662 11.5715L7.53292 18.4057C7.61552 18.4879 7.72731 18.5341 7.84384 18.5341C7.96037 18.5341 8.07216 18.4879 8.15476 18.4057L16.3716 10.1949C16.4123 10.1535 16.4445 10.1045 16.4663 10.0506C16.4881 9.99674 16.499 9.93909 16.4984 9.88099L16.5044 6.71743C16.687 6.57167 16.8639 6.41825 17.0357 6.24652C17.8434 5.43882 18.3694 4.49266 18.5631 3.57803C18.7568 2.66343 18.6027 1.74609 17.9835 1.12687C17.5756 0.718954 17.0376 0.51115 16.4561 0.474839V0.468828C16.3591 0.462828 16.2591 0.465687 16.1602 0.46879Z" fill="#071F27"/>
<line x1="1.42781" y1="0.877554" x2="18.1893" y2="17.7373" stroke="#071F27" stroke-linecap="round"/>
</g>
<defs>
<clipPath id="clip0">
<rect width="18" height="19" fill="white" transform="translate(0.570312)"/>
</clipPath>
</defs>
</svg>
