<svg width="18" height="12" viewBox="0 0 18 12" fill="none" xmlns="http://www.w3.org/2000/svg">
<g clip-path="url(#clip0)">
<path d="M1.11741 5.88953C0.669198 5.44024 0.669198 4.7118 1.11741 4.26251C1.56561 3.81323 2.2923 3.81323 2.74051 4.26251L7.83505 9.36931C8.28326 9.8186 8.28326 10.547 7.83505 10.9963C7.38684 11.4456 6.66015 11.4456 6.21195 10.9963L1.11741 5.88953Z" fill="#00BAFF"/>
<path d="M8.21575 10.992C7.76515 11.4437 7.03458 11.4437 6.58397 10.992C6.13337 10.5403 6.13337 9.80796 6.58397 9.35627L14.9148 1.00539C15.3654 0.553704 16.096 0.553704 16.5466 1.00539C16.9972 1.45708 16.9972 2.18941 16.5466 2.6411L8.21575 10.992Z" fill="#00BAFF"/>
</g>
<defs>
<clipPath id="clip0">
<rect width="16.6667" height="12" fill="white" transform="translate(0.5)"/>
</clipPath>
</defs>
</svg>
