<svg width="12" height="12" viewBox="0 0 12 12" fill="none" xmlns="http://www.w3.org/2000/svg">
<g clip-path="url(#clip0)">
<path d="M0.806501 2.22951C0.397833 1.82085 0.397833 1.15827 0.806501 0.749597C1.21517 0.340929 1.87775 0.34093 2.28642 0.749598L11.2701 9.73332C11.6788 10.142 11.6788 10.8046 11.2701 11.2132C10.8615 11.6219 10.1989 11.6219 9.79022 11.2132L0.806501 2.22951Z" fill="#FF5050"/>
<path d="M2.2867 11.2128C1.87804 11.6214 1.21545 11.6214 0.806787 11.2128C0.398119 10.8041 0.398119 10.1415 0.806787 9.73285L9.79051 0.749128C10.1992 0.34046 10.8618 0.34046 11.2704 0.749128C11.6791 1.1578 11.6791 1.82038 11.2704 2.22905L2.2867 11.2128Z" fill="#FF5050"/>
</g>
<defs>
<clipPath id="clip0">
<rect width="11.0769" height="12" fill="white" transform="translate(0.5)"/>
</clipPath>
</defs>
</svg>
