<svg width="20" height="19" viewBox="0 0 20 19" fill="none" xmlns="http://www.w3.org/2000/svg">
<path d="M18.4222 12.3037C18.4222 13.2264 18.4222 14.149 18.4222 15.0717C18.4222 15.2672 18.4246 15.4603 18.4006 15.6558C18.4102 15.5915 18.4174 15.5295 18.427 15.4651C18.3958 15.6773 18.3383 15.8847 18.2544 16.0826C18.2784 16.0254 18.3024 15.9682 18.3263 15.911C18.2664 16.0469 18.1969 16.1756 18.1154 16.2972C18.0914 16.333 18.0674 16.3663 18.0435 16.3997C17.9715 16.4999 18.1561 16.2662 18.0794 16.3544C18.0291 16.414 17.9763 16.4712 17.9212 16.5285C17.8685 16.5809 17.8133 16.6286 17.7582 16.6763C17.6431 16.7764 17.8948 16.5785 17.7918 16.6524C17.763 16.6739 17.7318 16.6954 17.7007 16.7144C17.5736 16.8003 17.4394 16.8718 17.2979 16.9314C17.3555 16.9076 17.413 16.8837 17.4705 16.8599C17.2716 16.9433 17.063 17.0005 16.8497 17.0315C16.9144 17.022 16.9767 17.0148 17.0415 17.0053C16.8329 17.0315 16.6243 17.0268 16.4134 17.0268C16.097 17.0268 15.7782 17.0268 15.4617 17.0268C14.3782 17.0268 13.2947 17.0268 12.2112 17.0268C10.888 17.0268 9.56473 17.0268 8.24151 17.0268C7.11005 17.0268 5.97859 17.0268 4.84714 17.0268C4.32935 17.0268 3.81157 17.0291 3.29378 17.0268C3.18112 17.0268 3.06605 17.0196 2.95339 17.0053C3.01811 17.0148 3.08044 17.022 3.14516 17.0315C2.93181 17.0005 2.72326 16.9433 2.5243 16.8599C2.58183 16.8837 2.63936 16.9076 2.69689 16.9314C2.56026 16.8718 2.43081 16.8026 2.30855 16.7216C2.2726 16.6977 2.23904 16.6739 2.20548 16.6501C2.1048 16.5785 2.33972 16.7621 2.25102 16.6858C2.19109 16.6358 2.13356 16.5833 2.07603 16.5285C2.02329 16.476 1.97535 16.4212 1.92741 16.3663C1.82673 16.2519 2.02569 16.5022 1.95138 16.3997C1.9298 16.3711 1.90823 16.3401 1.88905 16.3091C1.80276 16.1828 1.73084 16.0492 1.67091 15.9086C1.69488 15.9658 1.71886 16.023 1.74283 16.0802C1.65893 15.8823 1.60139 15.6749 1.57023 15.4627C1.57982 15.5271 1.58701 15.5891 1.5966 15.6535C1.54386 15.2553 1.57503 14.8357 1.57503 14.4351C1.57503 13.8605 1.57503 13.2836 1.57503 12.709C1.57503 12.5731 1.57503 12.4372 1.57503 12.3013C1.57503 11.927 1.24422 11.5693 0.85588 11.586C0.465145 11.6027 0.136735 11.9007 0.136735 12.3013C0.136735 13.1548 0.136735 14.0084 0.136735 14.8643C0.136735 15.3435 0.131941 15.8227 0.287756 16.2829C0.601782 17.2151 1.30175 17.9137 2.21507 18.2665C2.7784 18.4835 3.38008 18.4549 3.97218 18.4549C4.75605 18.4549 5.54231 18.4549 6.32618 18.4549C7.40969 18.4549 8.49321 18.4549 9.57672 18.4549C10.6938 18.4549 11.8085 18.4549 12.9255 18.4549C13.8101 18.4549 14.6922 18.4549 15.5768 18.4549C15.9531 18.4549 16.3295 18.4573 16.7059 18.4549C17.564 18.4501 18.415 18.0973 19.0023 17.4702C19.5585 16.8742 19.8581 16.0993 19.8605 15.2863C19.8605 14.3803 19.8605 13.4743 19.8605 12.5683C19.8605 12.4801 19.8605 12.3895 19.8605 12.3013C19.8605 11.927 19.5297 11.5693 19.1414 11.586C18.7506 11.6075 18.4222 11.9031 18.4222 12.3037Z" fill="#00154A"/>
<path d="M10.715 12.9069C10.715 12.5159 10.715 12.1273 10.715 11.7363C10.715 10.804 10.715 9.87181 10.715 8.9372C10.715 7.80471 10.715 6.6746 10.715 5.54211C10.715 4.56697 10.715 3.59184 10.715 2.6167C10.715 2.14224 10.7246 1.66779 10.715 1.19333C10.715 1.18618 10.715 1.17903 10.715 1.17188C10.715 0.797557 10.3842 0.439927 9.99587 0.456617C9.60513 0.473306 9.27672 0.771331 9.27672 1.17188C9.27672 1.56288 9.27672 1.95151 9.27672 2.34252C9.27672 3.27474 9.27672 4.20696 9.27672 5.14156C9.27672 6.27406 9.27672 7.40417 9.27672 8.53666C9.27672 9.5118 9.27672 10.4869 9.27672 11.4621C9.27672 11.9365 9.26713 12.411 9.27672 12.8854C9.27672 12.8926 9.27672 12.8997 9.27672 12.9069C9.27672 13.2812 9.60753 13.6388 9.99587 13.6222C10.3842 13.6055 10.715 13.3074 10.715 12.9069Z" fill="#00154A"/>
<path d="M9.49109 1.67961C9.95374 2.13976 10.414 2.59753 10.8766 3.05768C11.6126 3.78962 12.3485 4.52157 13.0868 5.2559C13.257 5.42518 13.4248 5.59208 13.595 5.76135C13.8611 6.026 14.3501 6.04507 14.6114 5.76135C14.8751 5.47525 14.8967 5.03179 14.6114 4.75045C14.1488 4.29031 13.6885 3.83254 13.2259 3.37239C12.4899 2.64044 11.754 1.90849 11.0157 1.17416C10.8455 1.00488 10.6777 0.83799 10.5075 0.668712C10.2414 0.404066 9.75238 0.384992 9.49109 0.668712C9.2274 0.952431 9.20583 1.39589 9.49109 1.67961Z" fill="#00154A"/>
<path d="M9.48945 0.668597C9.0268 1.12875 8.56654 1.58651 8.10389 2.04666C7.36797 2.77861 6.63204 3.51056 5.89372 4.24489C5.72353 4.41417 5.55573 4.58106 5.38553 4.75034C5.11944 5.01498 5.10027 5.50136 5.38553 5.76124C5.67319 6.0235 6.11905 6.04496 6.40192 5.76124C6.86457 5.30109 7.32482 4.84332 7.78747 4.38317C8.5234 3.65123 9.25932 2.91928 9.99764 2.18494C10.1678 2.01567 10.3356 1.84877 10.5058 1.6795C10.7719 1.41485 10.7911 0.928475 10.5058 0.668597C10.2182 0.406336 9.77231 0.384878 9.48945 0.668597Z" fill="#00154A"/>
</svg>
